<?xml version="1.0" encoding="utf-8"?>
<!-- Generator: Adobe Illustrator 21.0.0, SVG Export Plug-In . SVG Version: 6.00 Build 0)  -->
<svg version="1.1" id="Layer_1" xmlns="http://www.w3.org/2000/svg" xmlns:xlink="http://www.w3.org/1999/xlink" x="0px" y="0px"
	 width="300px" height="300px" viewBox="0 0 300 300" enable-background="new 0 0 300 300" xml:space="preserve">
<path d="M150.552,13.868C75.368,13.868,14.42,74.817,14.42,150s60.948,136.132,136.132,136.132S286.683,225.183,286.683,150
	S225.735,13.868,150.552,13.868z M259.428,161.25c-0.258,1.861-2.637,2.858-4.252,2.414c-1.966-0.54-2.67-2.406-2.414-4.252
	c0.101-0.73-0.219-1.737-0.311-2.445c-0.116-0.892-0.154-1.77-0.134-2.669c0.041-1.894-0.012-3.752-0.177-5.641
	c-0.309-3.556-0.898-7.074-1.639-10.563c-1.545-7.274-3.749-14.384-5.842-21.513c-1.258-4.285,5.416-6.098,6.667-1.838
	c2.198,7.489,4.521,14.96,6.071,22.618c0.792,3.915,1.389,7.883,1.704,11.866c0.157,1.98,0.1,3.923,0.12,5.903
	C259.242,157.242,259.723,159.119,259.428,161.25z M263.691,132.288c-4.456,0-4.449-6.914,0-6.914
	C268.147,125.374,268.14,132.288,263.691,132.288z"/>
<path d="M150.552,5.552C70.775,5.552,6.103,70.223,6.103,150s64.672,144.448,144.448,144.448S295,229.777,295,150
	S230.328,5.552,150.552,5.552z M266.079,161.938c-0.274,1.975-2.798,3.033-4.512,2.562c-2.086-0.573-2.834-2.552-2.562-4.512
	c0.107-0.774-0.232-1.843-0.33-2.594c-0.123-0.946-0.163-1.878-0.142-2.832c0.043-2.009-0.013-3.981-0.187-5.985
	c-0.328-3.773-0.953-7.506-1.74-11.209c-1.639-7.718-3.978-15.262-6.199-22.827c-1.335-4.547,5.747-6.471,7.074-1.95
	c2.333,7.947,4.797,15.874,6.442,24c0.841,4.154,1.473,8.365,1.809,12.591c0.167,2.101,0.106,4.163,0.128,6.264
	C265.882,157.685,266.393,159.676,266.079,161.938z M270.603,131.206c-4.728,0-4.72-7.336,0-7.336
	C275.331,123.869,275.323,131.206,270.603,131.206z"/>
<g>
	<path fill="none" d="M269.642,149.153c-0.347-4.369-1.001-8.723-1.87-13.018c-1.701-8.402-4.249-16.598-6.661-24.815
		c-1.372-4.674-8.694-2.685-7.314,2.016c2.296,7.821,4.714,15.622,6.409,23.602c0.813,3.829,1.459,7.688,1.799,11.589
		c0.18,2.072,0.239,4.111,0.194,6.188c-0.021,0.986,0.02,1.949,0.147,2.928c0.101,0.777,0.452,1.882,0.341,2.682
		c-0.281,2.026,0.492,4.073,2.649,4.665c1.772,0.487,4.382-0.607,4.665-2.649c0.324-2.339-0.203-4.397-0.227-6.713
		C269.752,153.458,269.815,151.326,269.642,149.153z"/>
	<path fill="none" d="M274.679,122.982c-4.881,0-4.889,7.585,0,7.585C279.56,130.567,279.568,122.982,274.679,122.982z"/>
	<path fill="#FFFFFF" d="M150.552,13.982C75.431,13.982,14.534,74.879,14.534,150s60.897,136.018,136.018,136.018
		S286.569,225.121,286.569,150S225.672,13.982,150.552,13.982z M270.002,162.343c-0.283,2.042-2.893,3.136-4.665,2.649
		c-2.157-0.593-2.93-2.639-2.649-4.665c0.111-0.801-0.24-1.905-0.341-2.682c-0.127-0.978-0.168-1.942-0.147-2.928
		c0.045-2.078-0.014-4.116-0.194-6.188c-0.339-3.901-0.986-7.761-1.799-11.589c-1.695-7.98-4.113-15.781-6.409-23.602
		c-1.38-4.701,5.943-6.69,7.314-2.016c2.412,8.217,4.96,16.413,6.661,24.815c0.869,4.295,1.523,8.649,1.87,13.018
		c0.172,2.172,0.11,4.304,0.132,6.477C269.798,157.946,270.326,160.004,270.002,162.343z M274.679,130.567
		c-4.889,0-4.881-7.585,0-7.585C279.568,122.982,279.56,130.567,274.679,130.567z"/>
</g>
<path d="M70.933,195.048c0.607,0.043,1.652,0.259,1.666-0.53c0.012-0.669-1.044-0.662-1.705-0.693
	c-1.134-0.054-2.27-0.029-3.413-0.03l-0.053,1.394C68.592,195.002,69.751,194.965,70.933,195.048z"/>
<path d="M66.281,225.376l-0.222,5.838C66.423,229.275,66.401,227.318,66.281,225.376z"/>
<path d="M253.948,171.909c-0.135-0.423-0.242-0.847-0.332-1.282c-0.472-2.298-0.897-5.277-1.024-7.619
	c-0.075-1.383,0.004-2.78,0.176-4.171c-0.05-0.628-0.249-1.334-0.319-1.87c-0.116-0.892-0.154-1.77-0.134-2.669
	c0.041-1.894-0.012-3.752-0.177-5.641c-0.309-3.556-0.898-7.074-1.639-10.563c-1.291-6.077-3.042-12.039-4.803-17.993
	c-0.461-0.722-0.9-1.458-1.298-2.221c-0.926-1.776-1.71-3.556-2.367-5.37c-0.413-0.424-0.843-0.828-1.404-1.068
	c-1.467-0.629-2.977-1.017-4.535-1.313c-4.031-0.765-8.056-1.567-12.042-2.547c-1.839-0.452-2.014-0.734-2.033-2.621
	c-0.017-1.669,0.094-3.353-0.282-4.989c-0.372-1.623,1.249-3.182,0.081-4.822c-0.185-0.26,0.261-0.551,0.329-0.826
	c0.224-0.908,1.314-1.727,0.574-2.727c-0.749-1.012-0.704-2.098-0.712-3.223c-0.014-2.146-0.274-4.213-1.571-6.047
	c-0.667-0.944-1.6-1.713-1.935-2.896c-0.098-0.346-0.515-0.475-0.866-0.591c-2.526-0.833-5.191-0.166-7.744-0.716
	c-0.122-0.026-0.271,0.037-0.391,0.095c-1.989,0.959-3.991,1.895-5.863,3.074c-0.468,0.295-0.729,0.786-1.069,1.206
	c-1.299,1.609-1.152,3.651-1.513,5.487c-0.475,2.414,0.014,4.853,1.222,7.073c0.354,0.651,0.533,1.323,0.425,2.08
	c-0.068,0.477-0.152,1.136,0.486,1.23c0.703,0.104,0.897-0.547,0.901-1.097c0.016-2.207,0.238-4.413,0.161-6.615
	c-0.08-2.278,1.23-3.817,3.538-3.795c0.703,0.007,1.338-0.135,1.96-0.42c0.821-0.376,1.607-0.818,2.406-1.237
	c1.695-0.889,3.995-0.197,4.822,1.386c1.038,1.986,2.181,3.918,2.68,6.147c0.334,1.491,0.343,2.855-0.896,3.965
	c-0.24,0.215-0.53,0.473-0.445,0.791c0.41,1.548-0.568,2.782-0.891,4.161c-0.677,2.895-3.853,3.992-5.769,4.13
	c-0.812,0.059-1.499-0.264-2.105-0.776c-0.662-0.56-1.399-0.993-2.211-1.289c-0.376-0.137-0.807-0.312-1.135,0.058
	c-0.275,0.31-0.122,0.696,0.007,1.028c0.696,1.795,0.778,3.984,3.05,4.781c0.037,0.013,0.055,0.016,0.065,0.015
	c0.002,0.01,0.011,0.029,0.037,0.067c1.363,1.919,2.977,3.571,5.047,4.803c-2.459,0.472-4.807,0.337-6.987-1.005
	c-0.827-0.509-1.35-1.105-0.574-2.069c0.138-0.171,0.272-0.415,0.105-0.612c-0.202-0.238-0.496-0.149-0.756-0.065
	c-0.215,0.07-0.411,0.185-0.605,0.3c-3.729,2.203-7.455,4.406-11.356,6.304c-1.922,0.935-3.304,2.395-4.061,4.497
	c-0.519,1.441-1.049,2.878-1.524,4.335c-0.112,0.345-0.061,0.924-0.675,0.808c-0.495-0.094-0.74-0.482-0.755-0.992
	c-0.047-1.67-0.406-3.313-0.415-4.986c-0.004-0.812,0.047-1.62-0.756-2.188c-0.364-0.257-0.355-0.751-0.163-1.125
	c0.321-0.627,0.55-1.3,1.202-1.743c0.962-0.654,1.034-1.709,0.201-2.479c-0.24-0.221-0.492-0.299-0.358-0.717
	c0.529-1.645,0.315-3.406,0.785-5.071c0.395-1.396,0.729-2.822-0.268-4.154c-0.16-0.214-0.181-0.518-0.146-0.787
	c0.118-0.909-0.232-1.739-0.68-2.43c-0.561-0.866-0.589-1.751-0.642-2.702c-0.132-2.382-0.162-4.772-0.502-7.139
	c-0.148-1.034-0.772-1.45-1.801-1.386c-3.911,0.244-7.822,0.475-11.739,0.597c-7.376,0.229-14.747,0.597-22.117,0.972
	c-3.952,0.201-7.903-0.01-11.868,0.285c-3.261,0.243-6.574-0.105-9.836,0.493c-0.176,0.032-0.363,0.019-0.54-0.012
	c-2.377-0.414-4.774-0.209-7.161-0.204c-1.439,0.003-2.888-0.005-4.32,0.239c-0.759,0.129-1.217,0.459-1.293,1.293
	c-0.196,2.16-0.287,4.308-0.064,6.48c0.445,4.341,0.627,8.707,1.178,13.04c0.044,0.343,0.182,0.777-0.153,1.016
	c-0.409,0.292-0.769-0.069-1.101-0.267c-1.515-0.902-2.822-2.107-4.323-3.026c-1.027-0.629-1.227-1.416-0.884-2.524
	c0.562-1.815,1.324-3.551,1.971-5.331c0.491-1.351,0.984-2.722,0.907-4.199c-0.045-0.863-0.483-1.461-1.394-1.142
	c-1.69,0.591-3.168,0.366-4.574-0.734c-0.557-0.436-0.886-0.092-0.741,0.507c0.199,0.827,0.158,1.711,0.579,2.486
	c0.54,0.501,0.871,1.125,0.495,1.802c-0.369,0.665-0.443,1.345-0.521,2.065c-0.147,1.365-0.917,1.866-2.219,1.496
	c-0.264-0.075-0.549-0.213-0.788-0.106c-1.482,0.66-2.913-0.264-4.39-0.111c-0.943,0.098-1.35-0.692-1.369-1.516
	c-0.021-0.93,0.037-2.071,0.97-2.442c0.603-0.24,1.489-0.279,2.246-0.035c1.29,0.416,2.655,0.227,3.981,0.5
	c1.24,0.256,1.886-0.533,1.642-1.603c-0.687-0.742-1.855-0.324-2.56-1.062c0.303-0.177,0.652-0.252,0.919-0.491
	c0.46-0.413,0.772-0.912,0.733-1.533c-0.046-0.731-0.725-0.694-1.209-0.865c-0.552-0.194-1.108-0.361-1.701-0.424
	c-1.201-0.129-2.668,0.524-3.395-1.106c-0.014-0.031-0.018-0.047-0.018-0.057c-0.008,0.009-0.031,0.018-0.096,0.007
	c-1.205-0.202-2.416-0.329-3.629-0.085c-0.337,0.068-0.561,0.302-0.523,0.68c0.049,0.487,0.402,0.526,0.792,0.513
	c0.557-0.018,1.154-0.32,1.664,0.209c-0.254,0.677-0.85,0.587-1.36,0.629c-2.279,0.191-2.501,0.597-2.281,2.915
	c0.235,2.474,1.085,4.811,0.84,7.425c-0.371,3.969,2.622,6.456,5.012,9.109c-1.475-0.667-2.87-1.477-4.091-2.548
	c-1.448-1.271-2.426-2.898-3.084-4.704c-0.29-0.797-0.344-1.587,0.343-2.261c0.353-0.347,0.776-0.73,0.491-1.282
	c-0.293-0.569-0.863-0.37-1.336-0.305c-3.034,0.413-6.068,0.838-9.133,0.925c-3.194,0.09-6.207,0.89-9.175,2.042
	c-2.162,0.839-4.118,1.737-5.733,3.587c-2.46,2.818-4.599,5.754-5.841,9.298v14.351c0.26,0.525,0.77,0.547,1.256,0.656
	c2.203,0.493,4.379,1.08,6.458,1.978c0.796,0.344,1.426,0.793,1.171,1.836c-0.183,0.748,0.312,0.989,0.919,0.99
	c2.161,0.005,4.335,0.243,6.48-0.157c3.913-0.73,7.636-2.151,11.447-3.249c2.119-0.611,3.721-1.954,4.926-3.806
	c0.888-1.365,2.247-2.402,3.113-3.715c1.605-2.431,3.574-2.597,5.985-1.753c1.228,0.43,2.503,0.782,3.62,2.087
	c-1.697-0.109-3.068-0.144-4.186,0.762c-0.344,0.279-0.989,0.532-0.768,1.127c0.19,0.512,0.78,0.547,1.281,0.593
	c0.812,0.075,1.622-0.056,2.433-0.039c0.413,0.009,0.889,0.111,0.948,0.589c0.068,0.557-0.455,0.609-0.842,0.653
	c-0.896,0.101-1.79,0.223-2.691,0.286c-0.577,0.04-1.348-0.036-1.468,0.671c-0.136,0.808,0.605,1.112,1.253,1.36
	c0.168,0.065,0.344,0.11,0.517,0.159c0.856,0.238,1.096,0.508,0.227,1.167c-0.966,0.733-0.91,0.887,0.137,1.637
	c0.11,0.079,0.233,0.145,0.215,0.311c-1.612,0.449-2.294,0.121-2.728-1.361c-0.113-0.386-0.341-0.635-0.669-0.798
	c-0.615-0.305-0.877-0.716-0.613-1.416c0.258-0.686-0.188-1.007-0.752-1.19c-1.079-0.351-2.949,1.174-2.671,2.262
	c0.236,0.926-0.151,1.262-0.909,1.447c-0.96,0.234-1.884,0.646-2.255,1.568c-0.623,1.546-2.006,1.885-3.317,2.227
	c-1.001,0.262-1.99,0.567-2.989,0.832c-2.655,0.704-5.123,1.935-7.817,2.582c-3.421,0.821-6.773,1.919-10.343,1.86
	c-2.026-0.033-4.035-0.363-6.064-0.381c-0.493-0.004-1.007-0.169-1.304,0.411v2.571c0.681,1.553,1.207,3.179,1.596,4.837
	c0.081,0.005,0.163,0.008,0.244,0.012c1.947,0.094,3.874-0.114,5.791-0.412c0.752-0.117,1.005,0.162,0.896,0.878
	c-0.047,0.312-0.106,0.622-0.152,0.934c-0.566,3.873-1.762,7.651-1.747,11.613l-0.575,15.144c0.664,0.72,1.194,1.499,2.06,1.953
	c1.824,0.955,3.588,1.993,5.518,2.772c3.09,1.247,6.057,2.803,9.392,3.356c0.213,0.035,0.577,0.025,0.572,0.237
	c-0.023,1.151,0.779,0.69,1.311,0.69c0.497,0,0.989-0.143,1.531-0.188c-0.667,0.378-0.766,0.805-0.062,1.032
	c0.906,0.292,2.018,0.453,2.762-0.056c0.797-0.546,1.498-0.265,2.234-0.29c0.609-0.021,0.659,0.347,0.318,0.792
	c-0.628,0.82-1.376,1.41-2.482,1.419c-2.618,0.022-5.217,0.297-7.795,0.734c-0.618,0.105-1.653,0.07-1.553,0.901
	c0.077,0.634,1.079,0.472,1.679,0.433c2.733-0.179,5.43-0.14,7.969,1.07c-1.176,0.313-2.439,0.297-3.656,0.553
	c-0.439,0.092-1.212,0.028-1.145,0.637c0.06,0.55,0.801,0.408,1.276,0.456c0.904,0.092,1.874-0.191,2.974,0.598
	c-1.604,0.383-2.482,1.757-4.078,1.683c-0.532-0.025-1.268,0.037-1.283,0.694c-0.015,0.637,0.771,0.42,1.192,0.606
	c0.087,0.038,0.157,0.085,0.225,0.24c-0.052,0.464-0.561,0.605-0.83,0.941c-0.082,0.105-0.141,0.219-0.173,0.35
	c0.043,0.825-0.66,0.769-1.128,0.884c-1.671,0.41-3.297,0.936-4.863,1.646c-0.348,0.158-0.907,0.218-0.741,0.769
	c0.157,0.524,0.672,0.312,1.055,0.284c0.771-0.055,1.512-0.237,2.223-0.55c0.732-0.322,1.45-0.697,2.297-0.699
	c-0.002,0.496-1.09,0.672-0.391,1.281c0.397,0.345,0.998,0.264,1.497,0.373c-1.563-0.105-3.01,0.467-4.496,0.804
	c-0.205,0.047-0.447,0.151-0.471,0.42c-0.02,0.218,0.164,0.32,0.333,0.357c0.569,0.123,1.133,0.12,1.466,0.818
	c0.11,0.231,0.657,0.269,0.571,0.822c-0.075,0.485,0.369,0.569,0.725,0.613c0.747,0.093,1.494,0.083,2.393-0.223
	c-1.148,0.555-2.193,0.831-3.242,1.1c-0.786,0.201-1.591,0.34-2.34,0.664c-0.202,0.087-0.461,0.187-0.457,0.444
	c0.006,0.345,0.328,0.39,0.581,0.438c0.503,0.095,1.005,0.07,1.505,0.005c-0.702,0.127-1.415,0.18-2.132,0.224
	c-0.34,0.021-0.799,0.043-0.795,0.536c0.004,0.43,0.264,0.784,0.694,0.905c0.436,0.123,0.888,0.031,1.355-0.075
	c-3.267,1.025-6.59,1.634-9.935,2.145c-0.308,0.047-0.715,0.069-0.755,0.437c-0.047,0.432,0.335,0.618,0.705,0.678
	c0.852,0.139,1.706,0.123,2.555-0.059c2.6-0.557,5.238-0.93,7.16-1.442c-2.599,0.756-5.873,1.813-9.157,2.844
	c-0.355,0.112-0.785,0.266-0.727,0.672c0.074,0.518,0.607,0.506,0.989,0.45c1.381-0.204,2.803-0.294,4.124-0.701
	c2.101-0.647,4.244-1.134,6.09-1.773c-0.177,0.069-0.377,0.152-0.576,0.241c-0.239,0.107-0.595,0.117-0.596,0.451
	c-0.002,0.367,0.341,0.5,0.634,0.612c1.319,0.503,2.54,0.332,3.503-0.482c-1.208,1.246-2.871,2.04-4.617,2.685
	c-1.566,0.579-3.064,1.324-4.639,1.882c-0.499,0.176-1.268,0.41-1.085,0.987c0.225,0.71,0.99,0.319,1.54,0.228
	c0.355-0.058,0.977-0.328,0.988-0.294c0.422,1.32,1.369,0.158,1.998,0.448c-1.054,0.145-2.036,0.433-2.78,1.243
	c-0.238,0.259-0.618,0.535-0.398,0.907c0.223,0.378,0.657,0.208,0.984,0.073c1.067-0.44,2.196-0.717,3.257-1.172
	c-1.213,0.527-2.497,0.867-3.722,1.362c-0.415,0.168-1.007,0.179-1.072,0.678c-0.071,0.553,0.703,0.403,1.02,0.889
	c-1.728,0.27-0.842,1.941-1.567,2.801c-0.172,0.205,0.093,0.4,0.341,0.43c0.414,0.049,0.817-0.044,1.188-0.207
	c2.861-1.26,5.445-2.946,7.997-5.275c-1.087,1.071-2.043,1.815-3.009,2.497c-1.614,1.14-3.35,2.111-5.178,2.896
	c-0.746,0.32-1.485,0.654-2.244,0.946c-0.207,0.08-0.459,0.176-0.608,0.333c1.399-0.059,2.798-0.133,4.196-0.227
	c5.511-0.372,10.995-0.229,16.512-0.1c4.737,0.11,9.399-0.058,14.086-0.565c4.324-0.647,8.64-1.353,12.985-1.836
	c2.697-0.3,5.393-0.608,8.085-0.943c9.193-1.316,18.338-2.96,27.406-4.968c17.597-3.898,35.05-8.443,52.329-13.566
	c15.924-4.722,31.699-9.94,47.307-15.618v-14.447c-0.419-1.362-0.69-2.764-0.802-4.209
	C255.263,175.464,254.526,173.713,253.948,171.909z M83.011,213.553c-0.002,0-0.003,0.001-0.005,0.001
	c0.003-0.014-0.002-0.031-0.02-0.05C82.864,213.371,83.177,213.453,83.011,213.553z M106.675,115.768
	c-1.941,0.541-3.826,0.305-5.686-0.236c0.635,0.006,1.15-0.429,1.653-0.815c0.66-0.507,1.325-0.708,2.135-0.458
	c1.24,0.384,2.197-0.106,2.972-1.049c0.48-0.584,0.859-1.234,1.085-2.089C109.79,113.658,109.08,115.098,106.675,115.768z"/>
<path d="M65.751,196.696c-0.424,3.135-0.543,6.249-0.308,9.424c0.303,4.087-0.29,8.189-0.212,12.291
	c0.019,1.011,0.045,1.933,0.64,2.935c0.501,0.845,0.278,2.161,0.357,3.261c0.019,0.256,0.036,0.511,0.052,0.768l1.147-30.187
	c-0.131,0.021-0.262,0.043-0.393,0.068C66.18,195.42,65.866,195.842,65.751,196.696z"/>
<path d="M69.832,192.281c0.254-0.182,0.552-0.421,0.386-0.771c-0.128-0.268-0.465-0.219-0.732-0.201
	c-0.647,0.044-1.292,0.103-1.92,0.255l-0.072,1.905C68.302,193.113,69.115,192.794,69.832,192.281z"/>
<path d="M67.48,193.795l0.012-0.326c-0.233,0.103-0.466,0.208-0.696,0.323C67.025,193.795,67.253,193.795,67.48,193.795z"/>
<path d="M67.398,181.29c-0.507,0.512-0.654,1.182-0.781,1.799c-0.354,1.718-0.662,3.455-0.407,5.221
	c0.132,0.915,0.079,1.793-0.245,2.661c-0.109,0.293-0.228,0.647,0.008,0.904c0.275,0.3,0.586,0.023,0.862-0.085
	c0.24-0.094,0.484-0.167,0.73-0.227l0.37-9.744C67.767,181.638,67.592,181.458,67.398,181.29z"/>
<path fill="#FEFEFE" d="M74.736,233.641c0.826-0.358,1.564-0.678,2.287-1.025c1.059-0.509,2.136-1.003,3.119-1.637
	c1.026-0.662,2.116-1.218,3.017-2.108c0.811-0.801,1.754-1.468,2.413-2.428c-0.856,0.542-1.611,1.198-2.404,1.804
	c-0.764,0.583-1.544,1.151-2.359,1.658c-0.848,0.527-1.763,0.946-2.617,1.462c-0.831,0.502-1.72,0.755-2.716,0.827
	c0.625-0.308,0.881-0.871,1.222-1.36c-0.361-0.2-0.651-0.36-0.941-0.521c1.232,0.549,0.964-1.201,1.811-1.165
	c-0.281-0.696-1.009-0.47-1.611-0.74c2.028-0.806,4.088-1.3,5.812-2.616c-1.716,0.557-3.432,1.114-5.268,1.711
	c0.977-1.591,2.649-1.649,4.03-2.299c-0.935-0.486-1.769-0.161-2.622,0.09c0.1-0.459,0.49-0.464,0.71-0.688
	c-1.218-0.655-2.207,0.787-3.59,0.278c4.031-2.051,8.622-2.77,11.876-6.271c-1.201-0.064-1.846,0.8-2.731,1.076
	c-0.989,0.309-1.835-0.125-2.765-0.419c1.009-0.672,2.315-0.537,3.369-1.596c-4.593,1.066-8.795,2.738-13.354,2.786
	c4.234-1.328,8.468-2.656,12.703-3.983c-0.029-0.131-0.058-0.263-0.086-0.394c-4.369,0.669-8.619,2.356-13.111,1.959
	c3.985-0.847,8.053-1.267,12.081-3.129c-1.33-0.342-2.619,0.944-3.464-0.692c1.556-0.045,3.027,0.173,4.203-0.911
	c-0.558,0.254-1.136,0.05-1.696,0.082c-0.533,0.031-1.07,0.007-1.605,0.007c2.274-0.971,4.788-1.105,6.797-2.637
	c-1.291,0.082-2.551,0.355-3.834,0.152c-0.027-0.517,0.462-0.808,0.584-1.271c-0.579-0.029-1.128-0.057-1.825-0.092
	c0.548-0.355,1.197-0.229,1.436-0.998c-0.926,0.255-1.767,0.314-3.007,0.133c2.305-0.494,4.208-0.902,6.399-1.372
	c-1.13-0.202-1.963-0.351-2.796-0.5c0.507-0.052,0.563-0.691,1.062-0.761c0.213-0.03,0.519-0.275,0.4-0.592
	c-0.122-0.327-0.463-0.172-0.705-0.174c-0.211-0.002-0.422,0.099-0.635,0.143c-1.57,0.325-2.941,1.308-4.598,1.379
	c-0.233,0.01-0.413,0.126-0.48-0.161c-0.017-0.072,0.12-0.256,0.203-0.267c1.486-0.194,2.715-1.126,4.187-1.414
	c1.068-0.209,2.252-0.305,3.028-1.08c0.021-0.5-0.826,0.106-0.573-0.619c0.268-0.127,0.528-0.272,0.805-0.373
	c0.537-0.195,0.611-0.526,0.525-1.076c-0.105-0.669-0.535-0.232-0.794-0.322c-0.341-0.118-0.757,0.128-1.396-0.415
	c2.68,0.07,4.572-0.997,6.369-2.587c-1.77-0.777-3.38-0.404-4.934-0.675c1.655-0.226,3.27-0.718,4.949-0.653
	c0.494,0.019,0.631-0.251,0.728-0.589c0.092-0.318-0.092-0.44-0.671-0.51c-1.156-0.141-2.379,0.025-3.324-0.967
	c-0.205-0.215-0.806-0.2-1.166-0.094c-1.791,0.526-3.593,0.101-5.601,0.282c0.503-0.407,0.831-0.524,1.238-0.591
	c2.852-0.469,5.717-0.764,8.609-0.797c0.705-0.008,1.326-0.123,1.762-0.815c0.408-0.647,1.574-1.114,1.239-1.849
	c-0.344-0.755-1.477-0.281-2.248-0.277c-0.531,0.003-0.951-0.528-1.502-0.227c0.094,0.31,0.745,0.193,0.53,0.756
	c-1.099-0.139-2.24,0.174-3.507-0.23c0.698-0.589,1.426-0.122,2.181-0.566c-1.552-0.651-2.946-0.156-4.523-0.046
	c0.472-0.369,1.041-0.166,1.067-0.781c-1.719-0.422-3.503-0.654-5.159-1.332c-3.555-1.456-7.152-2.803-10.493-4.759
	c-1.045-0.612-1.9-1.342-2.615-2.237c-0.33-0.412-0.616-0.817-1.052-1.109c-0.305,0.848-0.748,1.643-0.861,2.482
	c-0.259,1.912-0.819,3.81-0.332,5.789c0.163,0.661,0.17,1.445-0.279,2.062c-0.366,0.504-0.244,1.04-0.195,1.557
	c0.027,0.282,0.38,0.701,0.641,0.416c1.15-1.258,2.746-0.761,4.116-1.155c-1.031,0.73-2.092,1.347-3.358,1.618
	c-0.407,0.087-1.195,0.332-0.974,0.956c0.176,0.496,0.795,0.149,1.264,0.122c1.819-0.102,3.676-0.406,5.665,0.345
	c-1.745,0.309-3.264-0.131-4.802,0.067c-2.365,0.304-2.372,0.231-2.596,2.681c-0.02,0.215-0.12,0.422-0.151,0.638
	c-0.296,2.061-0.551,4.107-0.249,6.211c0.445,3.101,0.13,6.24,0.012,9.34c-0.09,2.367-0.236,4.758-0.013,7.087
	c0.068,0.715,0.4,1.62,0.59,2.469c0.668,2.981,0.381,5.92-0.009,8.871"/>
<path fill="#FEFEFE" d="M63.138,139.665"/>
<path fill="#FEFEFE" d="M68.908,166.971c-0.127-4.837,1.686-9.387,2.004-14.246c-1.143,0.115-2.328,0.177-3.493,0.365
	c-1.353,0.218-2.698,0.291-4.04,0.157c0.531,2.137,0.832,4.333,0.93,6.505"/>
<path d="M63.412,139.556"/>
<path fill="#FEFEFE" d="M164.222,209.893c1.383-1.052,0.759-2.485,0.694-3.799c-0.016-0.327-0.188-0.676-0.374-0.958
	c-0.252-0.381,0.453-1.252-0.554-1.195c-0.844,0.048-1.582,1.146-1.504,1.901c0.141,1.352-0.767,2.248-1.59,3.117
	c-0.238,0.251-0.354,0.227-0.142,0.597c0.443,0.773-0.039,1.752-0.89,1.928c-0.292,0.06-0.688,0.073-0.906-0.08
	c-0.288-0.202,0.016-0.536,0.044-0.812c0.071-0.696,0.726-1.089,0.771-1.788c0.033-0.512,0.196-0.967-0.609-0.935
	c-0.115,0.005-0.593-0.057-0.585-0.408c0.009-0.356,0.318-0.439,0.615-0.581c0.56-0.269,1.781-0.08,1.44-1.069
	c-0.26-0.752-1.166,0.017-1.71,0.144c-0.583,0.136-1.034,0.114-1.488-0.158c-0.382-0.229,0.052-0.513,0.075-0.767
	c0.062-0.681,0.676-0.632,1.145-0.558c2.217,0.349,3.058-1.246,3.96-2.755c0.745-1.248,1.548-2.434,2.557-3.506
	c1.126-1.195,1.332-2.857,1.454-4.382c0.178-2.222,0.294-4.476,0.255-6.694c-0.058-3.347-0.489-6.688-0.934-10.024
	c-0.372-2.792-0.08-5.673-0.081-8.514c0-0.181,0.086-0.282,0.226-0.42c1.602-1.571,1.913-3.954,0.817-5.819
	c-0.221-0.375-0.587-0.327-0.896-0.469c-0.923-0.425-0.977-1.376-1.156-2.212c-0.009-0.041,0.544-0.649,0.997-0.556
	c0.904,0.186,1.786,0.567,2.461,1.145c0.593,0.509,1.194,0.825,1.918,1.043c1.661,0.5,2.937,2.226,2.922,4.14
	c-0.019,2.382,0.135,4.759,0.09,7.146c-0.031,1.656-0.374,3.282-0.303,4.914c0.063,1.456,0.445,2.874,0.265,4.38
	c-0.266,2.216-0.905,4.361-1.021,6.61c-0.096,1.864-0.577,3.718-0.111,5.582c0.338,1.352-0.812,2.074-1.278,3.053
	c-0.463,0.973-0.645,1.875-0.569,2.903c1.587-0.454,2.159,0.009,1.5,1.513c-0.634,1.449-0.445,3.301-1.978,4.358
	c-0.101,0.069-0.495,0.435-0.173,0.769c0.127,0.132,0.293,0.256,0.339-0.049c0.037-0.247,0.206-0.244,0.376-0.292
	c0.118-0.033,0.224-0.106,0.339-0.163c0.286,0.434-0.31,0.492-0.294,0.521c0.311,0.589-0.086,1.055-0.47,1.125
	c-0.288,0.052-0.688-0.448-1.017-0.727c-0.104-0.088,0.069-0.602-0.289-0.282c-0.987,0.879-2.678,1.054-2.832,2.782
	c-0.011,0.126-0.108,0.243-0.13,0.37c-0.136,0.788-0.431,2.069-0.969,1.957c-0.835-0.173-0.232-1.339-0.368-2.064L164.222,209.893z"
	/>
<path fill="#FEFEFE" d="M253.202,175.076c-1.686-0.806-1.168-2.523-1.059-3.521c0.391-3.584,0.564-7.087-0.1-10.671
	c-0.262-1.412-0.466-2.856-0.969-4.17c-0.542-1.417-1.449-2.596-0.687-4.3c0.592-1.326-0.011-2.842-0.088-4.264
	c-0.067-1.239-0.305-2.58-0.88-3.656c-1.238-2.316-2.39-4.645-2.821-7.244c-0.113-0.684-0.32-0.729-0.891-0.773
	c-2.024-0.155-3.929,0.436-5.86,0.853c-0.407,0.088-0.674,0.268-0.677,0.96c-0.01,1.897,0.109,3.775,0.36,5.645
	c0.257,1.911,1.007,2.483,2.965,2.601c0.581,0.035,1.346,0.159,1.323,0.974c-0.02,0.679-0.093,1.358-1.14,1.483
	c-1.325,0.159-1.628,0.911-1.329,2.257c0.387,1.738,1.302,3.301,1.488,5.123c0.143,1.409,0.483,2.854,1.039,4.153
	c0.847,1.978,1.822,3.807,2.284,6.022c0.607,2.916,1.642,5.765,2.025,8.759c0.063,0.496,0.178,0.842,0.852,0.574
	c1.477-0.589,2.866-0.361,4.237,0.882C253.303,175.995,253.554,175.244,253.202,175.076z"/>
<path fill="#FEFEFE" d="M147.48,144.172c0.428,0.608,0.907,0.52,1.246,0.425c2.445-0.686,4.989,0.202,7.429-0.505
	c0.475-0.138,0.723,0.306,0.954,0.616c0.213,0.287,0.122,0.607-0.16,0.831c-0.249,0.198-0.372,0.423-0.877,0.307
	c-1.96-0.453-3.927,0.069-5.875,0.291c-0.711,0.081-1.465-0.015-2.206,0.31c-0.462,0.202-0.557,0.464-0.834,1.022
	c2.286-0.776,4.538-0.112,6.717-0.657c0.481-0.12,1.069-0.119,1.139,0.576c0.07,0.693-0.446,0.753-0.987,0.754
	c-2.973,0.002-5.825,0.734-8.685,1.44c-2.376,0.586-4.884,0.429-7.226,1.251c-0.231,0.081-0.527,0.053-0.748-0.18
	c-0.563-0.594-0.998-0.274-1.618,0.064c-3.339,1.819-5.562,4.886-8.378,7.279c-1.433,1.218-3.057,2.208-4.854,2.991
	c-1.231,0.536-2.605,1.057-3.671,1.906c-1.01,0.804-1.78-0.334-2.747-0.03c-0.377,0.119-0.569-1.105-0.62-1.833
	c-0.124-1.782,0.589-3.349,1.201-4.926c0.26-0.671,1.03-0.913,1.755-0.799c0.549,0.087,1.207,0.185,1.585,0.532
	c1.556,1.428,2.692,0.574,4.067-0.391c3.19-2.239,5.952-4.932,8.697-7.662c1.443-1.435,3.338-2.505,4.139-4.458
	c0.575-1.404,1.65-2.362,2.508-3.506c0.689-0.918,1.642-1.629,2.301-2.597c0.156-0.229,0.376-0.591,0.754-0.395
	c0.292,0.152,0.359,0.458,0.374,0.803c0.028,0.654-0.176,1.186-0.55,1.719c-0.499,0.712-1.026,1.452-0.755,2.441
	c2.589-0.448,4.822-1.861,7.296-2.594c1.675-0.496,3.353-0.977,5.11-1.074c0.505-0.028,1.102-0.027,1.043,0.677
	c-0.047,0.555-0.419,0.975-1.085,0.938c-2.548-0.14-4.603,1.135-6.691,2.356c2.676-1.202,5.616-1.034,8.391-1.699
	c1.038-0.249,1.762,0.303,1.58,1.165c-0.166,0.784-0.77,0.577-1.281,0.625C153.011,142.457,150.118,142.788,147.48,144.172z"/>
<path fill="#FEFEFE" d="M172.127,117.804c1.889,1.104,4.153,0.054,5.895,1.715c-1.328,0.325-2.427,0.117-3.506,0.188
	c-0.367,0.024-0.84-0.163-0.815,0.54c0.018,0.493,0.084,0.703,0.65,0.895c0.964,0.326,2.033,0.453,2.883,1.128
	c-1.565,1.135-4.385,0.997-5.754-0.37c-0.56-0.56-1.269-0.164-1.861-0.608c-1.001-0.75-1.12-1.887-1.574-2.875
	c-0.132-0.287,0.117-0.696-0.572-0.505c-0.995,0.276-1.889-0.701-1.575-1.723c0.261-0.848,0.244-1.584,0.004-2.438
	c-0.411-1.465,0.584-2.699,2.068-2.612c0.587,0.034,0.507-0.41,0.568-0.594c0.501-1.521,0.984-3.053,1.366-4.607
	c0.217-0.881,0.549-1.452,1.374-2.01c0.935-0.631,1.561-1.728,2.682-2.218c0.441-0.193,0.836-0.501,1.36-0.418
	c2.603,0.411,5.344,0.204,7.682,1.796c0.381,0.259,0.603,0.464,0.775,0.941c0.591,1.64,1.191,3.206,0.771,5.04
	c-0.154,0.671,0.417,1.48,0.524,2.244c0.353,2.521-1.319,3.873-3.082,5.149c-0.211,0.153-0.576,0.206-0.663,0.399
	c-1.058,2.328-2.726,0.877-4.025,0.518C175.557,116.897,173.969,116.823,172.127,117.804z"/>
<path fill="#FEFEFE" d="M132.003,115.884c0.306-1.148,0.37-2.154-0.098-3.417c-0.437-1.181-0.439-2.731,0.192-4.152
	c0.482-1.087,0.511-2.377,0.728-3.579c0.137-0.757,0.464-1.269,1.313-1.402c0.772-0.121,1.473-0.444,2.16-0.874
	c0.262-0.164,1.086-0.991,1.506,0.092c0.019,0.048,0.243,0.065,0.341,0.025c1.621-0.665,3.379-0.809,5.035-1.319
	c1.674-0.515,3.534,0.066,4.5,1.519c1.218,1.832,1.292,4.018,1.881,6.04c0.243,0.835-0.797,1.458-1.579,0.978
	c-1.869-1.147-3.778-1.101-5.762-0.386c-0.86,0.31-1.135,0.675-0.761,1.665c0.934,2.469,3.198,2.385,5.037,1.885
	c0.422-0.115,0.802-0.337,1.272-0.324c0.42,0.011,0.829-0.875,1.262-0.065c0.384,0.719,0.602,1.49-0.032,2.21
	c-0.237,0.269-0.514,0.504-0.768,0.758c-1.419,1.414-1.952,1.472-3.518,0.182c-0.475-0.391-0.558-0.1-0.963,0.081
	c-0.836,0.373-1.841-0.158-2.788,0.097c-0.378,0.102-0.81-0.014-1.212,0.025c-0.544,0.052-1.368,0.055-1.429,0.574
	c-0.068,0.575-0.658,1.518,0.475,1.871c0.321,0.1,0.098,0.263,0.006,0.356c-0.085,0.086-0.277,0.191-0.341,0.153
	c-0.727-0.439-1.474,0.603-1.885,0.224c-0.766-0.706,0.575-1.085,0.567-1.762c-0.004-0.356-0.001-0.713-0.001-1.136
	c-1.436,0.772-2.755,1.457-3.875-0.432c-0.346-0.584-0.649,0.217-0.952,0.427C132.044,116.26,131.939,116.156,132.003,115.884z"/>
<path fill="#FEFEFE" d="M113.645,195.025c0.5-0.024,1.222-0.284,1.025,0.654c-0.309,1.465,0.516,2.74,0.67,4.134
	c0.134,1.209,0.427,2.449,0.433,3.801c0.539-0.555,0.864-1.963,1.451-0.103c0.348,1.104,1.321,1.15,2.243,0.357
	c0.367-0.316,0.642-0.746,1.15-0.876c0.729-0.187,0.531-0.778,0.571-1.28c0.065-0.82-0.683-0.32-0.991-0.649
	c0.62-0.298,1.377,0.072,1.939-0.568c0.33-0.375,1.313,0.6,1.083,1.226c-0.456,1.242,0.341,2.65-0.643,3.839
	c-0.375,0.453,0.421,0.526,0.652,0.793c0.309,0.358,0.62,0.741,1.322,0.984c-0.671,0.098-1.075,0.194-1.539-0.062
	c-0.226-0.124-0.55-0.56-0.866-0.11c-0.251,0.358-0.254,0.767,0.021,1.12c0.714,0.915,0.505,1.852,0.251,2.875
	c-0.085,0.341,0.221,0.669-0.361,0.349c-1.143-0.629-1.192,0.114-1.131,1.024c-1.44-0.489-2.628-1.154-3.567-2.264
	c-0.562-0.664-1.184-1.299-2.118-1.446c-0.201-0.089-0.643,0.233-0.566-0.331c0.028-0.808-0.531-0.774-1.092-0.787
	c-1.193-0.027-1.182-0.038-1.176-1.202c0.001-0.125-0.205-0.252-0.314-0.378c-0.296,0.916-0.941-0.778-1.177,0.146
	c-0.104,0.406-0.311,0.354-0.577,0.337l0.039,0.039c-0.111-0.262,0.183-0.693-0.253-0.795c-0.264-0.062-0.768,0.391-0.724-0.24
	c0.027-0.389,0.546-0.319,0.901-0.348c0.462-0.038,0.966,0.18,1.574-0.302c-0.924-0.475-1.705,0.003-2.465,0.01
	c-1.081,0.009-2.162,0.012-3.243,0.033c-0.315,0.006-0.496-0.179-0.61-0.409c-0.025-0.051,0.257-0.366,0.344-0.344
	c0.96,0.241,1.543-0.461,1.66-1.08c0.105-0.553,1.386-0.794,0.472-1.611c-0.045-0.04,0.298-0.35,0.602-0.359
	c0.312-0.009,0.709,0.166,1.012-0.412c-0.894-0.23-1.709-0.103-2.553-0.123c0.733-0.25,1.334-0.66,2.114-1.155
	c-1.425-0.507-2.486,0.259-3.594,0.449c-0.728,0.125-1.332,0.088-2.038-0.056c-0.758-0.155-0.915-0.681-1.042-1.193
	c-0.161-0.647,0.586-0.73,0.925-0.929c0.903-0.529,2.062-0.244,3.008-0.858c-1.155,0.282-2.282-0.26-3.42-0.022
	c-0.359,0.075-0.706,0.243-0.773-0.233c-0.06-0.424,0.291-0.576,0.696-0.608c0.762-0.06,1.663,0.318,2.155-0.675
	c-0.298-0.245-0.763-0.246-0.929-0.029c-0.522,0.68-0.617,0.03-0.846-0.206c-0.45-0.462-0.004-1.031,0.217-1.045
	c1.195-0.072,1.81-1.057,2.685-1.595c1.784-1.098,3.833-1.077,5.755-1.548c1.493-0.365,2.106,0.543,1.721,2.154
	c-0.055,0.228-0.57,0.792,0.372,0.591c0.273-0.059-0.018,0.539-0.168,0.804c-0.101,0.178-0.378,0.27-0.245,0.551
	c-0.322-0.005-0.568,0.254-0.887,0.26C113.115,195.329,113.357,195.108,113.645,195.025z"/>
<path fill="#FEFEFE" d="M179.318,198.958c-0.372-0.107-0.603-0.427-1.047-0.499c-1.462-0.235-2.387-1.361-3.423-2.222
	c0.657-1.208,1.873-0.037,2.87-0.755c-0.911-0.309-1.693-0.544-2.353-0.193c-1.057,0.562-1.597-0.192-2.113-0.736
	c-0.496-0.522-0.526-1.313-0.207-2.001c0.334-0.722,0.938-0.351,1.464-0.283c0.267,0.034,0.584-0.079,0.804,0.027
	c1.113,0.536,1.639,0.266,1.392-0.996c-0.098-0.498,0.724-0.273,0.476-0.79c-0.93-0.333-1.931-0.242-3.169-0.1
	c0.574-0.786,1.1-0.519,1.532-0.566c4.115-0.449,8.28-0.504,12.318-1.55c0.631-0.164,0.947,0.012,1.014,0.646
	c0.036,0.348,0.01,0.674,0.202,1.029c0.198,0.366,0.128,1.05,0.705,0.885c0.338-0.097,0.943-0.026,1.063-0.876
	c0.169-1.198,2.643-1.995,3.493-1.312c0.68,0.546,0.716,1.343,0.326,1.908c-0.208,0.301-0.496,0.505-0.266,0.804
	c0.246,0.321,0.495-0.315,0.854-0.119c0.065,0.597-0.62,0.867-0.693,1.348c0.306,0.64,0.95-0.578,1.049,0.212
	c0.127,1.005,0.672,2.04,0.068,3.057c-0.245,0.413-0.538,0.809-0.869,1.156c-0.658,0.689-1.065,1.405-0.59,2.371
	c0.223,0.454,0.03,0.877-0.402,0.955c-0.529,0.095-0.231-0.44-0.342-0.678c-0.738-1.595-0.103-3.144,0.315-4.621
	c0.399-1.409,0.03-2.712-0.061-4.055c-0.038-0.564-0.282-0.734-0.797-0.174c-0.635,0.689-1.337,1.401-2.472,1.19
	c-0.612-0.114-0.956,0.005-0.54,0.771c0.169,0.311,0.183,0.783-0.44,1.109c-0.383,0.2-0.417,1.077-0.6,1.652
	c-0.248,0.781-0.192,1.723-1.303,1.992c-0.249,0.06-0.388,0.399-0.304,0.964c0.18,1.219-0.245,2.568-0.919,3.627
	c-0.755,1.184-3.854,1.636-5.128,0.954c-0.094-0.05-0.137-0.194-0.292-0.427c0.818-0.064,1.529-0.12,2.486-0.195
	c-0.874-0.767-1.816-0.917-2.552-0.906c-0.86,0.013-1.391-0.581-2.137-0.672c-0.108-0.013-0.746-0.26,0.013-0.521
	c0.579-0.2,1.114-0.675,0.546-1.436c0.412,0.038,0.818-0.091,1.036-0.023C180.12,198.924,179.715,198.877,179.318,198.958z"/>
<path fill="#FEFEFE" d="M167.726,91.274c-0.182,0.455-0.661,0.558-0.654,0.609c0.29,2.198-1.497,1.755-2.529,1.778
	c-3.541,0.081-7.082,0.254-10.618,0.385c-4.846,0.18-9.709,0.113-14.536,0.527c-3.37,0.29-6.745-0.085-10.079,0.269
	c-3.654,0.388-7.335-0.132-10.913,0.686c0.791,0.912,0.246,2.222,0.55,3.411c0.314,1.227,0.057,2.598,0.077,3.905
	c0.007,0.443-0.113,0.775-0.58,0.566c-0.211-0.095-0.96-0.185-0.428-0.767c0.249-0.272-0.035-0.448-0.105-0.526
	c-1.49-1.691-1.864-3.048-1.977-6.16c-0.019-0.53,0.083-1.406-0.009-1.657c-0.798-2.159,0.726-1.67,1.763-1.663
	c3.724,0.025,7.447-0.199,11.158-0.367c3.095-0.14,6.186-0.018,9.272-0.192c6.4-0.36,12.804-0.486,19.213-0.581
	C160.756,91.448,164.18,91.278,167.726,91.274z"/>
<path fill="#FEFEFE" d="M184.126,185.84c1.099-0.224,2.201-0.437,3.296-0.683c0.194-0.043,0.38-0.337,0.566-0.08
	c0.163,0.224,0.142,0.528-0.089,0.722c-0.907,0.761-1.726,1.738-3.136,1.341c-0.167-0.047-0.359-0.005-0.539-0.01
	c-2.364-0.068-2.571-0.345-2.676-2.726c-0.068-1.532-0.559-3.019-0.674-4.563c-0.036-0.475-0.092-0.903-0.055-1.329
	c0.771-0.125,0.242,0.877,0.755,0.718c0.412-0.128,0.528-0.631,0.539-1.087c0.032-1.312,1.468-1.741,1.811-2.864
	c-0.392-0.161-0.95,0.128-1.17-0.407c0.514-1.107,1.655,0.373,2.309-0.643c-0.553-0.197-1.141,0.005-1.619-0.332
	c-0.143-0.101-0.622,0.364-0.668-0.164c-0.031-0.354,0.374-0.354,0.682-0.427c1.262-0.3,2.412-0.21,3.715,0.151
	c1.471,0.407,3.14,0.41,4.581-0.672c1.706-1.282,3.532,0.14,3.876,2.038c0.061,0.334-0.213,0.469-0.38,0.663
	c-1.092,1.27-2.184,2.537-2.038,4.383c0.018,0.233-0.062,0.41-0.236,0.591c-1.886,1.97-4,3.635-6.725,4.165
	C185.402,184.789,184.928,185.455,184.126,185.84z"/>
<path fill="#FEFEFE" d="M114.673,208.492c0.189,0.11,0.377,0.221,0.566,0.331c-0.275,0.707-0.958,1.598-0.739,2.082
	c0.454,1.004-0.098,1.726-0.416,2.358c-0.367,0.732-0.181,1.446-0.298,2.13c-0.219,1.283-0.454,2.811-0.818,3.697
	c-0.292,0.708-0.364,1.525-0.429,2.302c-0.06,0.717,0.646,0.21,0.905,0.483c-1.153,0.499-2.079,1.407-3.302,1.812
	c-1.261,0.418-2.496,0.914-3.94,1.449c1.858,0.412,3.386,0.569,4.657-0.937c0.375-0.445,1.133-0.639,1.902-0.45
	c-0.537,0.859-1.64,1.035-2.255,1.996c0.989,0.045,1.847,0.083,2.549,0.115c0.527,0.882-0.991,1.719,0.103,2.736
	c-0.152,0.264-0.617,0.501-1.054,0.483c-3.059-0.124-6.129-0.096-9.17-0.524c-0.746-0.105-0.371-0.62-0.342-1.017
	c0.158-2.197,1.651-3.59,2.929-5.178c1.31-1.629,3.094-2.974,3.94-4.833c0.704-1.547,2.247-2.662,2.299-4.537
	c0.012-0.43,0.625-0.348,0.973-0.526c-1.594-0.702,0.582-1.239,0.071-1.918c-0.022-0.029,0.405-0.433,0.656-0.619
	c0.339-0.252,1.352-0.158,0.454-0.978C114.166,208.797,114.419,208.644,114.673,208.492z"/>
<path fill="#FEFEFE" d="M195.995,164.264c0.543-0.365,0.504-1.036,0.723-1.557c0.776-1.848,2.257-2.539,4.116-2.648
	c0.763-0.044,1.543,0.077,2.295-0.026c1.21-0.166,1.505,0.827,1.384,1.451c-0.45,2.314-1.359,4.447-2.899,6.321
	c-1.366,1.662-2.36,3.617-4.044,5.084c-1.037-1.737-2.874-1.272-4.355-1.195c1.069-4.443,2.099-8.837,2.025-13.438
	C196.449,160.129,195.627,162.264,195.995,164.264z"/>
<path fill="#FEFEFE" d="M118.676,195.748c-1.851-0.064-1.142-1.55-1.238-2.392c-0.416-3.65-0.012-7.278,0.453-10.912
	c0.231-1.8,0.167-3.648,0.248-5.472c0.049-1.111-0.573-2.249-0.87-3.381c-0.209-0.799-0.404-1.63,0.949-1.091
	c0.039,0.016,0.094,0.017,0.134,0.003c1.834-0.625,2.032,0.708,2.282,1.931c0.646,3.162,1.402,6.31,1.86,9.5
	c0.333,2.321-0.048,4.539-1.87,6.389C119.2,191.77,118.932,193.805,118.676,195.748z"/>
<path fill="#FEFEFE" d="M244.629,183.02c-0.081-0.231,0.664-1.066-0.526-0.955c-0.258,0.024,0.012-2.334,0.381-2.761
	c1.025-1.184,2.889-2.049,4.997-0.849c1.045,0.594,2.366,0.009,3.408,0.82c0.632,0.492,1.287,0.755,1.295,1.794
	c0.008,1.11,0.439,2.265,1.094,3.132c0.579,0.766,0.522,1.373,0.197,2.065c-0.742,1.578-0.474,3.494-1.614,4.917
	c-1.088,1.359-1.621,3.19-3.357,4.003c-0.209,0.098-0.444,0.145-0.62-0.037c-0.156-0.161-0.013-0.281,0.103-0.429
	c1.642-2.101,2.391-4.629,3.314-7.067c0.298-0.788,1.2-1.37,0.843-2.399c-0.08-0.232,0.059-0.548-0.376-0.563
	c-0.322-0.011-0.653,0.197-0.649,0.371c0.033,1.559-1.584,2.264-1.866,3.679c-0.071,0.356-0.7,0.628-1.108,0.882
	c-0.721,0.448-1.636,0.629-1.481,1.877c0.065,0.523-0.708,0.604-1.511,0.926c0.997-1.931,1.772-3.595,2.701-5.168
	c0.573-0.97,1.177-1.923,1.51-2.991c0.334-1.069-0.211-1.955-0.829-2.765c-0.689,0.226-0.31,0.876-0.569,1.259
	C248.16,181.997,246.473,182.418,244.629,183.02z"/>
<path fill="#FEFEFE" d="M106.27,99.144c0.764,0.103,1.496,1.44,0.946,1.814c-0.825,0.56-0.624,1.254-0.654,1.963
	c-0.043,1.028-0.423,1.784-1.544,1.972c-0.396,0.066-0.938,0.705-1.037-0.299c-0.003-0.034-0.382-0.114-0.506-0.04
	c-1.646,0.994-3.289-0.361-4.95,0.012c-0.823,0.185-1.128-0.612-1.432-1.204c-0.63-1.228,0.73-2.302,0.324-3.552
	c-0.052-0.16,0.476-0.183,0.71-0.128c0.635,0.149,1.383-0.071,1.856,0.069c1.373,0.406,2.806,0.059,4.149,0.578
	c1.158,0.448,1.982-0.078,2.176-1.224C106.309,99.106,106.27,99.144,106.27,99.144z"/>
<path fill="#FEFEFE" d="M143.941,120.216c1.071,0.255,1.908-0.124,2.565-1.094c0.277,2.275-1.482,4.596-3.511,4.937
	c-0.832,0.14-1.649,0.261-2.492,0.254c-1.924-0.015-2.901-0.779-3.49-2.7c-0.099-0.323-0.206-0.587,0.046-0.857
	c0.289-0.31,0.575-0.257,0.959-0.097c0.589,0.246,1.124,0.416,1.561,1.005c0.768,1.036,2.664,0.554,3.78-0.863
	C143.423,120.478,143.628,120.294,143.941,120.216z"/>
<path fill="#FEFEFE" d="M169.441,121.975c-0.096,1.402,1.027,2.316,1.558,3.401c0.303,0.62,0.689,1.348,0.907,1.964
	c0.652,1.84,1.911,2.729,4.035,3.118c-0.912,0.36-1.519,0.606-2.19,0.616c-1.172,0.017-2.345,0.015-3.518,0.001
	c-0.727-0.008-1.315-0.378-1.601-1.001c-0.161-0.35-0.271-0.928,0.18-1.239c1.678-1.158,0.796-2.786,0.688-4.192
	C169.431,123.758,169.544,122.878,169.441,121.975z"/>
<path fill="#FEFEFE" d="M100.227,115.479c0.926-0.174,1.824-0.48,2.42-1.222c0.575-0.715,1.322-0.599,1.971-0.476
	c1.835,0.349,3.23-0.36,3.835-2.08c0.086-0.246-0.415-0.524-0.023-0.623c0.337-0.085,0.2-0.478,0.49-0.505
	c1.568,2.599,0.763,4.774-2.02,5.543c-2.23,0.617-4.527,0.568-6.637-0.673C100.259,115.447,100.227,115.479,100.227,115.479z"/>
<path fill="#FEFEFE" d="M133.206,132.132c-0.048,0.486,0.697,0.59,0.312,1.098c-0.306,0.404-0.724,0.257-1.109,0.285
	c-0.874,0.063-1.34-0.639-1.591-1.206c-0.165-0.373,0.279-1.079,1.052-0.965c0.082,0.012,0.248-0.041,0.248-0.044
	c-0.322-2.082,1.833-1.269,2.55-2.157c0.251-0.311,0.891-0.564,1.206-0.237c0.518,0.538,0.262,1.381-0.044,1.843
	c-0.301,0.455-1.112,0.379-1.056,1.394C134.803,132.69,133.838,132.364,133.206,132.132z"/>
<path fill="#FEFEFE" d="M145.897,132.874c0.64-0.285,0.775-0.977,1.245-1.344c0.203-0.159,0.424-0.731,0.656-0.005
	c0.013,0.04,0.221,0.018,0.339,0.025c-0.415-1.713,1.661-2.403,1.555-3.989c0.811,0.074,0.966,0.963,1.664,1.123
	c0.256,0.059,0.22,0.477,0.067,0.702c-0.927,1.364-2.097,2.501-3.68,2.991C147.155,132.56,146.56,132.821,145.897,132.874z"/>
<path fill="#FEFEFE" d="M217.404,113.921c1.592-2.143,4.08-3.243,5.882-5.13C222.303,111.591,219.787,112.693,217.404,113.921z"/>
<path fill="#FEFEFE" d="M241.075,160.335c0.962-0.318,1.179,0.62,1.676,1.131c-0.489,0.418-0.804,1.057-1.614,1.037
	c-0.86-0.021-1.331-0.322-1.362-1.243C239.744,160.318,240.321,160.274,241.075,160.335z"/>
<path fill="#FEFEFE" d="M98.999,98.319c-1.032,0.204-0.767-0.524-0.845-1.068c-0.104-0.722,0.224-1.409,0.832-1.202
	c0.776,0.264,1.889,0.981,1.932,1.57C100.966,98.288,99.689,98.137,98.999,98.319z"/>
<path fill="#FEFEFE" d="M195.016,179.86c-0.225,1.711,0.62,3.367,0.253,5.219C193.712,182.536,193.644,181.442,195.016,179.86z"/>
<path fill="#FEFEFE" d="M150.68,122.255c0.09-0.383,0.911-0.688,0.149-1.258c-0.455-0.34,0.157-0.415,0.354-0.57
	c0.267-0.21,0.824-0.167,0.768-0.039c-0.455,1.026,0.385,0.56,0.71,0.673c0.249,0.087,0.707-0.225,0.718,0.307
	c0.011,0.527-0.404,0.963-0.386,1.537c0.005,0.146-0.439-0.126-0.618-0.295C151.89,122.152,151.238,122.638,150.68,122.255z"/>
<path fill="#FEFEFE" d="M116.83,200.09c0.365-0.712,0.248-1.557,0.324-2.384c0.025-0.275,0.148-0.813,0.511-0.775
	c0.424,0.045,0.871,0.422,0.786,0.909c-0.155,0.881-0.44,1.74-0.686,2.604c-0.085,0.299-0.209,0.593-0.627,0.488
	C116.677,200.816,116.913,200.439,116.83,200.09z"/>
<path fill="#FEFEFE" d="M239.231,158.262c0.741-0.253,1.497-0.013,2.224-0.335c0.601-0.266,1.202,0.185,1.272,0.813
	c0.096,0.872-0.699,0.512-1.049,0.469C240.818,159.105,239.573,159.85,239.231,158.262z"/>
<path fill="#FEFEFE" d="M244.736,188.408c-0.624,0.564-1.381-0.253-2.066,0.267c-0.344,0.261-0.624-0.127-0.683-0.394
	c-0.076-0.345,0.229-0.619,0.558-0.589c0.936,0.084,1.809,0.128,2.692-0.398c0.475-0.283,0.571,0.46,0.649,0.728
	c0.085,0.293-0.284,0.587-0.645,0.627C245.101,188.664,244.942,188.511,244.736,188.408z"/>
<path fill="#FEFEFE" d="M143.941,120.216c-0.106,0.283-0.301,0.477-0.583,0.586c-0.934-0.549-1.87,0.172-2.809-0.007
	c-0.487-0.093-1.03,0.13-1.714-0.29c0.727-0.253,1.129-0.553,1.812-0.333c0.369,0.119,1.297,0.644,1.421-0.525
	c0.034-0.321,0.61-0.27,0.638-0.133C142.859,120.271,143.697,119.714,143.941,120.216z"/>
<path fill="#FEFEFE" d="M132.003,115.884c0.104,0.105,0.208,0.209,0.312,0.314c0.343,0.525,0.32,1.125,0.194,1.673
	c-0.094,0.409-0.669,0.783-0.823,0.212c-0.27-0.995-1.029-1.842-1.065-3.061C131.278,115.233,131.466,115.845,132.003,115.884z"/>
<path fill="#FEFEFE" d="M142.858,118.154c1.213-0.071,0.951-1.017,1.182-1.733c0.916,0.37,1.702,1.463,1.399,1.9
	C144.932,119.049,143.797,118.883,142.858,118.154z"/>
<path fill="#FEFEFE" d="M239.604,165.661c0.19-0.592,0.361-1.128,0.557-1.739c0.269,0.376,0.452,0.867,1.034,0.729
	c0.243-0.058,0.546-0.589,0.716-0.045c0.106,0.342-0.022,0.805-0.169,1.163c-0.139,0.337-0.547,0.353-0.799,0.148
	C240.534,165.585,240.06,165.866,239.604,165.661z"/>
<path fill="#FEFEFE" d="M242.867,169.165c-0.917,0.829-2.33,1.092-2.717,0.571c-0.142-0.191-0.31-0.481-0.259-0.67
	c0.079-0.293,0.335-0.184,0.62-0.125C241.231,169.087,241.979,169.091,242.867,169.165z"/>
<path fill="#FEFEFE" d="M150.337,117.799c-0.784-1.3,0.197-2.084,0.781-2.975c0.231-0.352,0.581,0.044,0.553,0.069
	c-0.867,0.778-0.427,2.064-1.143,2.881C150.506,117.798,150.444,117.786,150.337,117.799z"/>
<path fill="#FEFEFE" d="M240.941,167.707c0.611-0.162,0.611-0.162,1.43,0.729c-0.714-0.32-1.333-0.421-1.781-0.216
	c-0.693,0.317-0.915,0.105-1.158-0.492c-0.123-0.301-0.318-0.767-0.068-0.796c0.415-0.048,0.879,0.203,1.3,0.381
	c0.138,0.058,0.208,0.28,0.309,0.427c-0.091,0.007-0.177-0.009-0.259-0.047c-0.028,0.153-0.019,0.136,0.1,0.036
	C240.949,167.615,240.773,167.774,240.941,167.707z"/>
<path fill="#FEFEFE" d="M113.15,189.909c-1.215,1.014-2.579,0.526-3.702,1.005C110.41,190.158,111.648,189.814,113.15,189.909z"/>
<path fill="#FEFEFE" d="M250.725,139.188c-0.443-0.044-0.846-0.031-1.151,0.425c-0.165,0.247,0.117,0.539,0.369,0.612
	c0.4,0.116,0.715,0.074,0.965-0.104C250.849,139.809,250.788,139.498,250.725,139.188z"/>
<path fill="#FEFEFE" d="M248.931,186.107c-0.093-0.506-0.735-0.534-0.772-1.155c-0.032-0.53,0.392-0.673,0.627-0.678
	c0.695-0.016,0.386,0.742,0.674,1.097C249.711,185.68,249.293,185.878,248.931,186.107z"/>
<path fill="#FEFEFE" d="M103.056,200.662c1.09,0.311,2.113-0.563,3.234,0.175c-1.068,0.122-2.135,0.244-3.203,0.366
	C103.076,201.023,103.066,200.842,103.056,200.662z"/>
<path fill="#FEFEFE" d="M162.19,114.577c0.603,0.564,1.144-0.087,1.702-0.132c0.354-0.028,0.505,0.193,0.765,0.215
	c-0.046,0.39-0.32,0.422-0.639,0.447c-0.563,0.045-1.132-0.117-1.695,0.128c-0.305,0.132-0.478-0.15-0.5-0.428
	C161.805,114.565,162.022,114.575,162.19,114.577z"/>
<path fill="#FEFEFE" d="M158.139,109.679c-0.527,0.418-0.953,0.256-1.508,0.226c0.201-0.548,0.399-1.038,0.558-1.54
	c0.145-0.456,0.476-0.372,0.717-0.204c0.242,0.168,0.047,0.439-0.13,0.525C156.449,109.338,157.741,109.362,158.139,109.679z"/>
<path fill="#FEFEFE" d="M164.261,209.854c-0.17,0.038-0.347,0.059-0.509,0.118c-0.416,0.151-0.99,0.572-1.225,0.127
	c-0.207-0.394,0.421-0.827,0.805-0.972c0.572-0.216,0.941,0.102,0.89,0.766C164.222,209.893,164.261,209.854,164.261,209.854z"/>
<path fill="#FEFEFE" d="M178.797,205.522c-0.633,0.067-1.141-0.455-1.682,0.001c-0.151,0.127-0.415-0.02-0.419-0.321
	c-0.003-0.229-0.002-0.457,0.305-0.462C177.69,204.729,178.444,204.563,178.797,205.522z"/>
<path fill="#FEFEFE" d="M99.53,226.577c0.83-1.028,1.595,0.085,2.522-0.229C101.129,227.462,100.365,226.641,99.53,226.577z"/>
<path fill="#FEFEFE" d="M175.152,201.787c0.241-0.19,0.275-0.239,0.31-0.241c0.658-0.032,1.274,0.074,1.721,0.613
	c0.047,0.056-0.049,0.323-0.058,0.322C176.47,202.404,175.876,202.169,175.152,201.787z"/>
<path fill="#FEFEFE" d="M131.986,133.916c-0.511,0.694-1.169,0.327-1.792,0.398C130.588,132.934,131.303,133.628,131.986,133.916z"
	/>
<path fill="#FEFEFE" d="M243.107,166.249c0.822,0.204,0.795,0.712,0.711,1.187c-0.047,0.262-0.409,0.276-0.545,0.172
	C242.8,167.246,243.088,166.759,243.107,166.249z"/>
<path fill="#FEFEFE" d="M165.031,116.624c-0.804,0.119-1.309,0.202-1.859-0.166C163.803,115.765,164.289,115.94,165.031,116.624z"/>
<path fill="#FEFEFE" d="M159.228,115.034c-0.766,0.88-1.399,0.568-2.201,0.502C157.702,114.824,158.373,115.235,159.228,115.034z"/>
<path fill="#FEFEFE" d="M85.988,214.211c-0.357,0.067-0.669-0.11-0.74-0.388c-0.044-0.172,0.243-0.409,0.548-0.429
	c0.367-0.024,0.622,0.174,0.694,0.466C86.594,214.275,86.212,214.171,85.988,214.211z"/>
<path fill="#FEFEFE" d="M162.495,214.259c0.027-0.822,0.442-1.183,1.248-1.317C163.48,213.59,163.081,213.967,162.495,214.259z"/>
<path fill="#FEFEFE" d="M101.68,227.735c-0.036,0.248-0.196,0.516-0.547,0.529c-0.366,0.013-0.211-0.429-0.415-0.579
	c0.214-0.157,0.407-0.383,0.646-0.452C101.658,227.147,101.692,227.416,101.68,227.735z"/>
<path fill="#FEFEFE" d="M152.741,109.558c0.352-0.442,0.651-0.684,1.096-0.607c0.06,0.01,0.15,0.352,0.089,0.465
	C153.639,109.947,153.25,109.654,152.741,109.558z"/>
<path fill="#FEFEFE" d="M130.921,112.171c-0.099,0.294-0.35,0.25-0.537,0.207c-0.31-0.072-0.567-0.275-0.506-0.629
	c0.027-0.157,0.283-0.253,0.412-0.091C130.467,111.883,130.941,111.736,130.921,112.171z"/>
<path fill="#FEFEFE" d="M121.285,197.039c0.333,0.521,0.746,0.757,0.511,1.237c-0.035,0.073-0.245,0.147-0.299,0.11
	C121.054,198.082,121.159,197.646,121.285,197.039z"/>
<path fill="#FEFEFE" d="M169.324,100.153c-0.474,0.018-0.908,0.238-1.269-0.133c-0.036-0.037,0.056-0.305,0.125-0.323
	C168.634,99.583,168.963,99.833,169.324,100.153z"/>
<path fill="#FEFEFE" d="M163.538,206.677c0.139,0.711-0.067,1.169-0.676,1.429C163.087,207.63,163.312,207.153,163.538,206.677z"/>
<path fill="#FEFEFE" d="M145.302,224.849c-0.27-0.267-0.906-0.572-0.098-1.149C145.241,224.138,145.272,224.493,145.302,224.849z"/>
<path fill="#FEFEFE" d="M162.016,105.147c-0.121,0.505-0.644,0.433-0.985,0.786C161.038,105.13,161.411,104.999,162.016,105.147z"/>
<path fill="#FEFEFE" d="M151.508,111.733c-0.309,0.063-0.242-0.165-0.262-0.295c-0.042-0.287,0.11-0.408,0.382-0.394
	c0.169,0.009,0.379-0.022,0.405,0.225C152.077,111.689,151.608,111.499,151.508,111.733z"/>
<path fill="#FEFEFE" d="M153.173,118.351c-0.388,0.67-0.843,0.577-1.534,0.424C152.255,118.605,152.663,118.492,153.173,118.351z"/>
<path fill="#FEFEFE" d="M163.955,124.859c0.003,0.185-0.139,0.275-0.328,0.251c-0.157-0.02-0.409-0.073-0.438-0.166
	c-0.083-0.274,0.12-0.368,0.371-0.361C163.736,124.586,163.909,124.595,163.955,124.859z"/>
<path fill="#FEFEFE" d="M107.71,206.313c-0.473-0.145-0.778-0.239-1.091-0.335C107.053,205.603,107.442,205.409,107.71,206.313z"/>
<path fill="#FEFEFE" d="M162.491,111.287c-0.229,0.12-0.03,0.608-0.456,0.54c-0.085-0.014-0.222-0.185-0.207-0.258
	c0.056-0.274,0.223-0.486,0.527-0.507C162.424,111.059,162.669,111.075,162.491,111.287z"/>
<path fill="#FEFEFE" d="M182.018,93.217c0.129,0.306,0.184,0.644,0.014,0.898c-0.11,0.164-0.291-0.076-0.368-0.197
	C181.404,93.51,181.773,93.395,182.018,93.217z"/>
<path fill="#FEFEFE" d="M153.856,116.175c-0.044-0.067-0.153-0.155-0.157-0.249c-0.013-0.327,0.248-0.284,0.447-0.27
	c0.086,0.006,0.243,0.139,0.238,0.151C154.289,116.002,154.162,116.171,153.856,116.175z"/>
<path fill="#FEFEFE" d="M154.894,115.641c0.292,0.025,0.584,0.051,0.876,0.076c-0.065,0.107-0.104,0.261-0.199,0.313
	C155.263,116.201,155.092,115.889,154.894,115.641z"/>
<path fill="#FEFEFE" d="M126.86,115.389c-0.05,0.244-0.206,0.308-0.374,0.212c-0.138-0.079-0.231-0.236-0.344-0.358
	c0.14-0.045,0.277-0.114,0.42-0.13C126.767,115.09,126.864,115.213,126.86,115.389z"/>
<path fill="#FEFEFE" d="M110.336,206.608c0.055,0.346,0.013,0.623-0.441,0.551c-0.092-0.015-0.252-0.13-0.245-0.149
	c0.127-0.337,0.386-0.437,0.725-0.364C110.374,206.647,110.336,206.608,110.336,206.608z"/>
<path fill="#FEFEFE" d="M123.269,106.065c0.128,0.674-0.217,0.776-0.537,0.997C122.588,106.473,123.06,106.473,123.269,106.065z"/>
<path d="M107.686,88.793c-0.38,0.019-0.711-0.064-0.879,0.065c-0.305,0.236-0.513,0.598-0.761,0.907
	c0.265,0.14,0.53,0.397,0.796,0.398c0.672,0.002,1.309,0.132,1.95,0.294c0.31,0.079,0.606-0.119,0.649-0.35
	c0.046-0.251-0.234-0.399-0.521-0.465c-0.408-0.094-0.801-0.254-1.18-0.46c1.419-0.062,2.745,0.372,4.333,0.779
	c-0.497-2.451-0.489-4.835-2.655-6.644c-1.284-1.072-2.271-1.686-3.855-0.778c-0.358,0.205-1.143,0.036-1.529-0.242
	c-1.616-1.165-3.145-1.047-4.662,0.102c-0.445,0.337-0.756,0.66-1.413,0.291c-0.168-0.094-1.317-0.148-1.398,0.863
	c-0.058,0.721-0.723,0.435-1.073,0.381c-2.391-0.376-3.451,0.366-3.808,2.801c-0.061,0.415,0.031,0.778-0.607,0.767
	c-0.563-0.009-0.642-0.192-0.804-0.73c-0.541-1.794,0.24-3.755-0.76-5.469c-0.083-0.142,0.004-0.448-0.094-0.509
	c-1.425-0.89-0.552-2.031-0.036-2.726c1.638-2.207,3.285-4.518,6.217-5.192c0.658-0.151,1.051-0.676,1.692-0.915
	c1.448-0.539,2.775,0.001,4.145-0.071c0.387-0.02,0.184,0.407,0.497,0.443c0.451,0.052,0.679,0.74,1.378,0.312
	c0.402-0.246,1.01,0.187,1.323,0.65c0.332,0.492,0.605,0.687,0.926,0.003c0.036-0.077,0.212-0.167,0.275-0.14
	c2.266,0.975,4.763,1.629,6.355,3.662c0.522,0.666,0.884,1.583,0.682,2.719c-0.22,1.234,0.158,2.586,0.336,3.877
	c0.241,1.748,0.054,3.497,0.103,5.244c0.021,0.738-1.151,0.942-0.634,2.008c0.254,0.523,0.145,0.843,0.691,0.403
	c0.384-0.31,0.684-0.498,0.953,0.008c0.258,0.484,0.642,0.998,0.182,1.582c-0.054,0.068-0.146,0.185-0.187,0.172
	c-0.316-0.098-0.252-1.132-0.852-0.41c-0.232,0.279-0.089,0.857-0.146,1.295c-0.039,0.299-0.29,0.418-0.636,0.627
	c-0.156-0.839-0.315-1.581-0.424-2.331c-0.062-0.43,0.14-0.98-0.363-1.207c-0.651-0.295-0.592,0.611-1.042,0.785
	c-0.082-0.315-0.14-0.572-0.218-0.823c-0.099-0.317,0.223-1.018-0.482-0.818c-0.881,0.249,0.104,0.549,0.059,0.817
	c-0.056,0.33-0.063,0.674-0.585,0.807c-0.654,0.166-1.29,0.399-1.928,0.124c-0.317-0.137-0.703-0.287-0.809-0.001
	c-0.192,0.521,0.377,0.299,0.6,0.43c0.151,0.089,0.289,0.201,0.482,0.338c-1.855,0.75-2.456-1.6-4.093-1.203
	c-0.012,0.209-0.034,0.584-0.067,1.152c-0.152-0.264-0.185-0.372-0.256-0.437c-0.464-0.424-0.163-1.018-0.344-1.522
	c-0.241-0.671-0.719-0.561-1.18-0.524c-0.5,0.04-0.687,0.404-0.605,0.859c0.085,0.472,0.242,0.932-0.363,1.174
	c-0.906-2.851-2.804-0.243-4.138-0.751c0.039-0.334,0.398-0.114,0.487-0.256c0.221-0.352-0.206-0.25-0.307-0.319
	c-0.896-0.609-2.272-0.27-2.874-1.504c-0.257-0.528-0.349,0.918-0.684,0.108c-0.155-0.376-1.111-0.507-0.48-1.086
	c0.626-0.575,1.484-0.474,2.283-0.327c0.043,0.008,0.109,0.166,0.085,0.217c-0.932,1.947,0.898,0.395,1.157,0.88
	c0.043,0.081,0.495-0.098,0.753-0.084c1.259,0.07,1.288,0.038,0.977-0.899c-0.116-0.35-0.336-0.143-0.501-0.185
	c-0.411-0.105-0.99-0.137-0.949-0.652c0.035-0.447,0.574-0.418,0.988-0.449c1.044-0.076,2.135,0.012,2.897,0.663
	c1.195,1.021,2.393,0.52,3.59,0.308C105.664,87.397,106.748,87.624,107.686,88.793z"/>
<path d="M217.105,90.462c0.756-0.022,0.769,0.778,1.303,1.03c0.305,0.144,0.687-0.526,0.792,0.132
	c0.114,0.715-0.561,0.367-0.826,0.585c-0.499,0.41-1.215,0.629-1.576,1.121c-1.186,1.615-2.98,1.17-4.251,0.54
	c-0.401-0.199-1.157-0.362-1.144-0.956c0.015-0.644,0.736-0.814,1.22-1.078C213.644,91.279,216.566,90.431,217.105,90.462z"/>
<path d="M206.047,95.679c-0.6,0.08-1.079-0.194-1.094-0.705c-0.017-0.548,0.022-1.241,0.702-1.53
	c0.718-0.305,1.456-0.552,2.253-0.546c0.403,0.003,0.808,0.019,1.21-0.004c0.584-0.034,1.627-0.482,1.562,0.263
	c-0.057,0.658-0.344,1.768-1.546,2.043C208.094,95.438,206.985,94.965,206.047,95.679z"/>
<path d="M216.182,97.549c0.792-0.1,1.211,0.178,1.528,0.526c0.192,0.211,0.486,0.725-0.316,0.538c-0.348-0.081-0.5,0.237-0.63,0.55
	c-0.396,0.95-0.713,1.775-2.077,0.864c-1.036-0.692-3.681,0.375-4.412,1.543c-0.307,0.491-0.711,0.201-1.063,0.242
	c-0.276,0.032-0.515-0.209-0.538-0.485c-0.036-0.431,0.436-0.397,0.66-0.523c2.034-1.141,4.294-1.552,6.556-1.958
	C216.725,98.696,217.098,98.317,216.182,97.549z"/>
<path d="M209.536,98.791c0.912-1.312,2.227-1.189,3.305-1.55c0.201-0.067,0.469-0.073,0.663,0.004
	c0.369,0.146,0.944-0.404,1.045,0.077c0.116,0.554-0.462,0.764-0.97,1.031C212.326,99.013,211.069,98.866,209.536,98.791z"/>
<path d="M215.617,101.544c-0.827,1.762-2.475,2.313-4.871,1.566C212.65,102.776,214.14,102.178,215.617,101.544z"/>
<path d="M91.001,92.731c-0.574-0.396-0.723-0.86-0.681-1.395c0.035-0.453-0.128-0.749-0.586-0.576
	c-0.396,0.149-0.576,0.159-0.496-0.307c0.077-0.444-0.263-1.022,0.26-1.311c0.379-0.21,0.792,0.162,0.858,0.45
	C90.585,90.589,91.282,91.506,91.001,92.731z"/>
<path d="M105.083,94.366c1.257,0.415,2.55-0.134,3.82,0.142c0.346,0.075,0.696,0.032,0.846,0.538
	c-1.422-0.118-2.891-0.772-4.189,0.318c-0.108-0.245-0.278-0.634-0.449-1.022L105.083,94.366z"/>
<path d="M208.036,99.578c0.103,0.735,0.169,1.24-0.462,1.426c-0.148,0.043-0.479-0.037-0.484-0.084
	C207.026,100.273,207.643,100.127,208.036,99.578z"/>
<path d="M208.955,95.617c-0.628,0.921-1.399,0.306-2.045,0.432C207.575,96.037,208.165,95.578,208.955,95.617z"/>
<path d="M91.208,89.525c-0.187-0.383-0.375-0.767-0.576-1.179C91.897,88.162,91.207,89.093,91.208,89.525z"/>
<path d="M105.111,94.342c-0.119-0.261-0.503-0.37-0.424-0.749c0.623,0.003,0.855,0.205,0.399,0.771
	C105.083,94.366,105.111,94.342,105.111,94.342z"/>
<path d="M81.239,219.233c-0.422,0.477-0.859,0.447-0.834,0.893c0.66,0.124,1.42-0.151,2.043,0.508
	c-1.246,1.057-3.098,0.819-4.321,1.93c-0.076,0.069-0.492-0.234-1.073-0.528c1.189,0.18,1.684-0.454,2.476-0.87
	c-0.743-0.426-1.578-0.305-2.309-0.943C78.66,220.24,79.741,219.558,81.239,219.233z"/>
<path d="M71.047,216.109c0.731,0.062,1.352-0.245,1.831,0.446C72.327,216.372,71.667,216.954,71.047,216.109z"/>
<path d="M86.096,203.248c-0.442,0.298-0.878,0.728-1.411,0.015c0.481-0.171,0.917-0.553,1.385,0.015
	C86.075,203.274,86.096,203.248,86.096,203.248z"/>
<path d="M79.242,214.389c-0.571,0.116-1.007,0.227-1.304-0.303C78.406,213.799,78.79,213.885,79.242,214.389z"/>
<path d="M81.607,209.727c-0.397,0.553-0.811,0.455-1.291,0.314C80.761,209.849,81.076,209.376,81.607,209.727z"/>
<path d="M83.095,201.286c-0.422,0.243-0.877,0.254-1.623,0C82.207,201.286,82.651,201.286,83.095,201.286z"/>
<path d="M65.678,213.927c0.691,0.56,0.523,0.921,0.422,1.436C65.964,214.899,65.872,214.586,65.678,213.927z"/>
<path d="M180.65,108.334c2.082-0.001,2.842,0.541,3.269,2.217c0.184,0.721-0.047,1.017-0.752,1.032
	c-1.685,0.036-3.263-0.566-4.894-0.847c-0.53-0.091-0.676-0.691-0.743-1.151c-0.075-0.513,0.376-0.772,0.777-0.97
	C179.049,108.247,179.857,108.333,180.65,108.334z"/>
<path d="M177.688,115.95c-1.18,0.603-2.023-1.079-3.35-0.938c-0.141,0.015-0.514-0.333-0.272-0.612
	c0.205-0.237,0.377-0.821,0.873-0.41c0.5,0.415,0.989,0.177,1.439,0.011c0.977-0.361,1.575,0.297,2.253,0.745
	c0.367,0.243,0.143,0.487-0.002,0.789C178.466,115.878,178.381,116.158,177.688,115.95z"/>
<path d="M170.755,110.285c1.031-1.307,2.343-0.681,3.473-0.929c-0.017-0.903-0.934-0.895-1.278-1.411
	c0.953-0.405,2.477,0.126,2.842,0.989c0.195,0.462-0.88,1.513-1.616,1.563C173.063,110.573,172.009,109.995,170.755,110.285z"/>
<path d="M166.778,113.222c-0.182-0.625-0.16-1.064,0.296-1.331c0.129-0.076,0.575-0.045,0.198,0.28
	C166.969,112.434,167,112.797,166.778,113.222z"/>
<path d="M137.424,109.156c0.91-0.235,1.683,0.556,2.619,0.535c0.301-0.007,0.322,0.191,0.373,0.43
	c0.255,1.205-0.915,2.752-2.089,3.12c-1.467,0.46-2.75-0.174-4.078-0.448c-0.562-0.116-1.632,0.17-1.658-0.862
	c-0.022-0.879,0.684-1.468,1.398-1.872C135.021,109.474,136.133,109.077,137.424,109.156z"/>
<path d="M119.172,208.917c-1.01-0.689-2.01-1.392-3.034-2.06c-0.737-0.481-0.765-1.2-0.603-1.903
	c0.203-0.877,1.162,0.232,1.491-0.48c1.627,0.946,2.936-0.274,4.367-0.65c0.273-0.072,0.518-0.248,0.834-0.404
	c-0.086,0.439-0.062,0.872-0.253,1.162c-0.336,0.509-0.138,1.66-1.532,1.004c-0.88-0.414-2.113-0.077-3.25-0.077
	c0.723,1.2,2.402,1.705,1.974,3.424L119.172,208.917z"/>
<path d="M111.933,197.129c-0.899,0.272-1.796,0.549-2.699,0.804c-0.044,0.013-0.196-0.16-0.206-0.255
	c-0.027-0.26,0.2-0.224,0.364-0.256c0.827-0.161,1.654-0.324,2.481-0.486C111.892,197,111.912,197.064,111.933,197.129z"/>
<path d="M113.645,195.025c-0.382,0.514-0.878,0.775-1.628,0.758c0.566-0.409,0.914-1.038,1.664-0.722
	C113.683,195.064,113.645,195.025,113.645,195.025z"/>
<path d="M108.794,196.869c-0.206-0.002-0.366-0.074-0.317-0.295c0.104-0.468,0.669-0.055,0.841-0.418
	c0.127,0.087,0.374,0.219,0.361,0.254C109.526,196.818,108.963,196.459,108.794,196.869z"/>
<path d="M119.164,208.931c0.396-0.46,0.768-0.294,1.218,0.028c-0.468,0.15-0.843,0.162-1.208-0.045
	C119.172,208.917,119.164,208.931,119.164,208.931z"/>
<path d="M193.529,190.016c0.21-0.272,0.305-0.638,0.753-0.573c0.092,0.013,0.248,0.257,0.225,0.289
	C194.29,190.039,194.01,190.232,193.529,190.016z"/>
<path fill="#010101" d="M179.318,198.958c0.52-0.363,1.055-0.102,1.583-0.09c-0.533,0.226-1.069,0.242-1.61,0.064
	C179.289,198.93,179.318,198.958,179.318,198.958z"/>
<path d="M184.372,182.256c1.018-1.166,2.397-1.192,3.604-1.617c1.497-0.526,2.666-1.485,3.721-2.718
	c0.125,2.263-2.019,4.622-4.812,5.152c0.744-0.566,1.872-0.666,1.372-1.77c-1.062,0.318-2.12,0.645-3.186,0.944
	C184.867,182.305,184.631,182.256,184.372,182.256z"/>
<path d="M184.802,183.285c-0.71,0.054-0.767,1.773-1.91,0.729c-0.254-0.232-0.783-0.528-0.452-0.705
	C183.127,182.942,183.973,182.995,184.802,183.285z"/>
<path d="M184.528,179.007c0.358,0.483,0.442,0.931-0.078,1.272c-0.082,0.054-0.304,0.049-0.339-0.007
	C183.758,179.716,184.358,179.438,184.528,179.007z"/>
<path d="M99.087,100.498c1.553-0.113,2.984,0.423,4.469,0.298c0.221-0.019,0.844,0.055,0.834,0.63
	c-0.008,0.43-0.337,0.517-0.657,0.714C102.014,103.196,99.294,102.567,99.087,100.498z"/>
<path d="M240.941,167.707c-0.593,0.115-0.593,0.115-1.137-0.223c0.492-0.269,0.764,0.31,1.167,0.253
	C240.974,167.74,240.941,167.707,240.941,167.707z"/>
<path fill="#FEFEFE" d="M103.772,75.456c-0.637,0.01-0.86-0.51-1.32-0.884C103.292,74.388,103.328,75.25,103.772,75.456z"/>
<path fill="#FEFEFE" d="M216.35,93.324c-0.834,0.415-1.421,0.819-2.309,0.549C214.793,93.545,215.331,92.944,216.35,93.324z"/>
<path fill="#FEFEFE" d="M180.046,109.922c0.257-1.147,1.316-0.527,1.878-0.961c0.162,0.362,0.324,0.723,0.491,1.096
	C181.526,110.565,180.823,109.811,180.046,109.922z"/>
<path fill="#FEFEFE" d="M61.823,119.31l-1.479,14.202c-0.022,0.212,0.132,0.402,0.344,0.423l1.171,0.12
	c0.016,0.002,0.032,0.004,0.048,0.008c2.271,0.539,4.564,0.998,6.739,1.881c0.32,0.13,0.669,0.196,0.978,0.345
	c1.692,0.814,1.827,0.885,1.446,2.348c-0.058,0.224,0.091,0.452,0.32,0.482c5.228,0.68,10.141-0.775,15.037-2.405
	c1.683-0.56,3.444-0.893,5.018-1.761c1.697-0.936,2.616-2.605,3.719-4.077c1.324-1.767,3.143-3.068,4.423-4.868
	c0.332-0.467,0.806-0.435,1.314-0.2c0.964,0.446,2.071,0.413,3.033,0.729c1.26,0.415,2.687,0.754,3.502,2.028
	c0.276,0.431,0.445,1.05-0.297,0.846c-1.663-0.458-3.063-0.168-4.273,0.836c-0.223,0.185-0.166,0.548,0.104,0.654
	c0.692,0.271,1.717,0.398,2.558,0.093c0.527-0.191,0.829,0.047,1.212,0.107c0.51,0.08,0.958,0.438,0.873,0.995
	c-0.086,0.565-0.513,0.864-1.15,0.889c-1.193,0.048-2.383,0.182-3.576,0.25c-0.325,0.019-0.706-0.005-0.807,0.323
	c-0.105,0.341,0.348,0.466,0.501,0.723c0.333,0.558,0.978,0.254,1.457,0.526c0.315,0.179,0.7,0.266,1.043,0.449
	c0.215,0.115,0.275,0.409,0.11,0.589c-0.289,0.316-0.699,0.469-1.088,0.65c-0.334,0.155-0.65,0.383-0.672,0.739
	c-0.006,0.096,0.514,0.295,0.805,0.325c0.468,0.048,1.038,0.063,0.912,0.66c-0.101,0.48-0.808,0.799-1.169,0.661
	c-0.655-0.251-1.347-0.054-1.942-0.319c-0.355-0.159-1.041-0.27-0.864-0.838c0.324-1.042-0.032-1.39-1.033-1.619
	c-0.645-0.147-0.691-0.782-0.316-1.383c0.142-0.227,0.798-0.518,0.209-0.762c-0.388-0.161-0.854-0.712-1.407-0.224
	c-0.496,0.438-0.883,0.984-1.526,1.281c-0.487,0.225,0.058,0.445,0.114,0.68c0.152,0.647,0.666,1.435-0.613,1.634
	c-1.458,0.227-2.46,0.891-3.066,2.465c-0.358,0.93-1.83,1.366-2.921,1.53c-2.264,0.341-4.409,1.078-6.442,1.996
	c-1.661,0.75-3.418,0.977-5.105,1.521c-2.145,0.691-4.34,1.307-6.606,1.527c-1.689,0.164-3.375,0.326-5.082,0.099
	c-1.82-0.242-3.656-0.353-5.496-0.225"/>
<path fill="#FEFEFE" d="M5,101.685"/>
<path d="M68.81,133.083c-1.021-0.891-2.151-1.243-3.498-1.306c-0.799-0.037-1.71,0.134-2.491-0.108
	c0.003-0.12,0.005-0.24,0.008-0.36c0.041-0.498,0.022-1.007,0.033-1.507c0.02-0.904,0.04-1.808,0.06-2.712
	c0.003-0.154,0.01-0.29,0.019-0.419c0.368-0.282,0.624-0.708,0.57-1.173c-0.013-0.113-0.019-0.227-0.022-0.343
	c0.074-0.101,0.154-0.207,0.248-0.323c0.704-0.87,1.098-1.887,1.224-2.967c0.05-0.08,0.1-0.16,0.143-0.244
	c0.209-0.404,0.267-0.89,0.615-1.192c1.45-1.258-0.592-3.338-2.059-2.219c-0.504,0.026-1.001,0.274-1.221,0.739
	c-0.024,0.051-0.046,0.102-0.07,0.153c-0.422,0.126-0.78,0.447-0.914,1.019c-0.116,0.494-0.267,1.02-0.418,1.559
	c-0.67,0.96-0.834,2.114-1.093,3.292c-0.046,0.208-0.05,0.402-0.023,0.582c-0.245,1.864-0.103,3.891-0.131,5.756
	c-0.021,1.426,0.247,2.451,1.642,3.063c0.844,0.37,1.741,0.443,2.654,0.448c0.827,0.005,1.897-0.181,2.575,0.412
	C68.128,136.513,70.286,134.372,68.81,133.083z"/>
<path d="M250.66,139.457c-0.082-0.683-0.565-1.308-1.454-1.308c-0.021,0-0.041,0.002-0.061,0.003c-0.014,0-0.026-0.003-0.04-0.003
	c-1.411,0-1.805,1.582-1.179,2.463c0.179,0.543,0.639,0.981,1.382,0.981C250.557,141.593,251.008,140.353,250.66,139.457z"/>
<g>
	
		<ellipse transform="matrix(0.9997 -0.025 0.025 0.9997 -3.7017 3.8176)" fill="none" cx="150.875" cy="150" rx="117.091" ry="117.091"/>
	<path stroke="#000000" stroke-miterlimit="10" d="M102.46,59.479l-1.238,0.639l-5.249-10.163l6.062-3.131l0.577,1.117l-4.824,2.491
		l1.694,3.281l4.277-2.208l0.577,1.116l-4.277,2.209L102.46,59.479z"/>
	<path stroke="#000000" stroke-miterlimit="10" d="M121.127,45.672c0.278,0.821,0.414,1.615,0.41,2.38
		c-0.003,0.765-0.141,1.471-0.412,2.115c-0.272,0.646-0.669,1.212-1.194,1.699c-0.525,0.487-1.17,0.861-1.936,1.12
		c-0.793,0.269-1.55,0.37-2.271,0.304c-0.72-0.067-1.381-0.274-1.983-0.625c-0.603-0.35-1.134-0.83-1.597-1.437
		c-0.462-0.608-0.832-1.322-1.11-2.143c-0.279-0.826-0.416-1.624-0.411-2.393c0.006-0.769,0.143-1.476,0.411-2.12
		c0.269-0.645,0.667-1.21,1.194-1.699c0.528-0.489,1.177-0.862,1.948-1.124c0.787-0.266,1.54-0.366,2.258-0.299
		c0.717,0.067,1.377,0.275,1.979,0.625c0.602,0.35,1.135,0.831,1.598,1.441C120.477,44.128,120.848,44.847,121.127,45.672z
		 M119.815,46.117c-0.247-0.729-0.56-1.338-0.938-1.83c-0.379-0.492-0.8-0.867-1.262-1.126c-0.461-0.259-0.953-0.407-1.473-0.445
		c-0.521-0.038-1.043,0.033-1.566,0.21c-0.524,0.177-0.982,0.439-1.373,0.785c-0.391,0.346-0.692,0.762-0.901,1.248
		c-0.21,0.485-0.316,1.039-0.319,1.659c-0.003,0.622,0.119,1.296,0.365,2.024c0.247,0.729,0.56,1.337,0.942,1.826
		c0.38,0.489,0.802,0.862,1.264,1.119c0.462,0.259,0.952,0.406,1.472,0.441c0.52,0.035,1.044-0.037,1.574-0.216
		c0.524-0.177,0.979-0.437,1.366-0.777c0.386-0.342,0.685-0.756,0.895-1.242c0.209-0.486,0.316-1.038,0.319-1.657
		C120.183,47.52,120.062,46.845,119.815,46.117z"/>
	<path stroke="#000000" stroke-miterlimit="10" d="M134.004,47.725c0.41-0.067,0.767-0.173,1.069-0.322
		c0.302-0.147,0.557-0.328,0.765-0.541c0.208-0.213,0.37-0.455,0.488-0.726c0.117-0.271,0.194-0.562,0.229-0.874
		c0.025-0.195,0.031-0.408,0.017-0.639c-0.015-0.231-0.04-0.454-0.075-0.667l-1.145-7.003l1.375-0.225l1.14,6.969
		c0.043,0.265,0.074,0.542,0.093,0.834c0.019,0.291,0.018,0.565-0.004,0.823c-0.039,0.434-0.136,0.846-0.292,1.235
		c-0.156,0.389-0.384,0.742-0.685,1.056c-0.301,0.314-0.68,0.584-1.137,0.809c-0.457,0.225-1.009,0.391-1.656,0.496
		c-0.619,0.102-1.172,0.124-1.662,0.064c-0.488-0.058-0.92-0.18-1.294-0.364c-0.374-0.184-0.694-0.423-0.962-0.718
		c-0.267-0.293-0.492-0.625-0.674-0.994c-0.13-0.268-0.24-0.558-0.329-0.874c-0.089-0.314-0.158-0.623-0.208-0.928l-1.14-6.968
		l1.375-0.225l1.146,7.002c0.041,0.253,0.103,0.51,0.183,0.771c0.08,0.262,0.178,0.496,0.292,0.702
		c0.287,0.514,0.685,0.891,1.195,1.131C132.618,47.79,133.25,47.848,134.004,47.725z"/>
	<path stroke="#000000" stroke-miterlimit="10" d="M147.26,42.675l0.042,4.736l-1.394,0.013l-0.101-11.439l2.963-0.026
		c0.501-0.003,0.927,0.011,1.277,0.045c0.351,0.033,0.671,0.089,0.962,0.167c0.799,0.21,1.412,0.574,1.837,1.092
		c0.426,0.518,0.643,1.166,0.649,1.947c0.004,0.462-0.066,0.876-0.212,1.242c-0.145,0.366-0.35,0.683-0.616,0.954
		c-0.265,0.271-0.584,0.492-0.956,0.667c-0.372,0.174-0.785,0.304-1.24,0.388v0.034l3.428,4.86l-1.394,0.012l-3.563-4.705
		L147.26,42.675z M147.212,37.229l0.037,4.188l1.376-0.012c0.428-0.004,0.792-0.021,1.094-0.053
		c0.302-0.031,0.572-0.085,0.811-0.161c0.483-0.151,0.854-0.391,1.113-0.719c0.259-0.327,0.387-0.752,0.382-1.277
		c-0.01-0.49-0.139-0.884-0.387-1.182c-0.248-0.295-0.589-0.508-1.022-0.636c-0.207-0.061-0.452-0.104-0.737-0.13
		c-0.285-0.026-0.647-0.037-1.086-0.033L147.212,37.229z"/>
	<path stroke="#000000" stroke-miterlimit="10" d="M168.356,39.183c-0.171,0.505-0.524,1.378-1.058,2.621l-2.805,6.439l-1.397-0.219
		l-1.688-11.844l1.376,0.217l0.901,6.935c0.143,1.111,0.255,2.11,0.34,2.995l0.033,0.005c0.194-0.506,0.396-0.997,0.606-1.472
		c0.209-0.475,0.395-0.898,0.556-1.271l2.758-6.378l1.376,0.216l0.663,6.915c0.167,1.665,0.254,2.652,0.262,2.966l0.035,0.005
		c0.319-0.757,0.733-1.673,1.242-2.747l2.985-6.326l1.376,0.217l-5.238,10.756l-1.396-0.219l-0.69-6.988
		c-0.123-1.3-0.19-2.24-0.202-2.818L168.356,39.183z"/>
	<path stroke="#000000" stroke-miterlimit="10" d="M178.432,50.978l8.047-9.37l1.143,0.382l0.792,12.326l-1.436-0.48l-0.203-3.7
		l-4.536-1.517l-2.388,2.834L178.432,50.978z M186.474,43.48c-0.936,1.189-1.809,2.262-2.618,3.218l-0.747,0.886l3.596,1.203
		l-0.07-1.159c-0.069-1.271-0.112-2.651-0.128-4.137L186.474,43.48z"/>
	<path stroke="#000000" stroke-miterlimit="10" d="M197.549,53.268l-2.155,4.218l-1.241-0.634l5.204-10.187l2.639,1.348
		c0.446,0.229,0.816,0.439,1.111,0.631c0.295,0.192,0.554,0.39,0.777,0.592c0.611,0.556,0.985,1.162,1.123,1.818
		c0.138,0.656,0.029,1.331-0.326,2.027c-0.209,0.411-0.464,0.745-0.762,1.003c-0.298,0.257-0.627,0.444-0.987,0.561
		s-0.746,0.166-1.156,0.149c-0.41-0.018-0.836-0.094-1.279-0.23l-0.015,0.03l0.79,5.894l-1.241-0.633l-0.982-5.82L197.549,53.268z
		 M200.026,48.419l-1.905,3.73l1.226,0.625c0.38,0.195,0.711,0.348,0.994,0.46s0.546,0.189,0.793,0.232
		c0.499,0.089,0.938,0.048,1.32-0.122c0.382-0.17,0.691-0.488,0.93-0.956c0.218-0.438,0.286-0.848,0.204-1.226
		c-0.082-0.378-0.286-0.724-0.612-1.038c-0.154-0.148-0.352-0.301-0.592-0.456s-0.557-0.332-0.948-0.531L200.026,48.419z"/>
	<path stroke="#000000" stroke-miterlimit="10" d="M218.06,64.804c-0.389,0.542-0.822,1.002-1.3,1.383
		c-0.478,0.379-0.988,0.663-1.534,0.851c-0.545,0.187-1.12,0.273-1.725,0.259c-0.604-0.013-1.232-0.139-1.884-0.376
		c-0.373-0.135-0.752-0.315-1.138-0.54c-0.386-0.225-0.79-0.489-1.21-0.792l-2.103-1.513l6.683-9.284l2.123,1.528
		c0.421,0.303,0.799,0.602,1.135,0.896c0.335,0.294,0.626,0.598,0.874,0.908c0.432,0.542,0.751,1.095,0.959,1.66
		c0.208,0.565,0.312,1.129,0.31,1.692c-0.002,0.564-0.104,1.126-0.308,1.687C218.741,63.72,218.446,64.269,218.06,64.804z
		 M216.936,63.995c0.642-0.893,0.966-1.758,0.972-2.597c0.006-0.837-0.276-1.638-0.846-2.399c-0.218-0.291-0.489-0.577-0.813-0.858
		c-0.324-0.282-0.703-0.58-1.139-0.894l-0.865-0.622l-5.214,7.244l0.865,0.623c0.436,0.313,0.839,0.578,1.209,0.795
		c0.37,0.218,0.728,0.384,1.072,0.498c0.902,0.299,1.759,0.3,2.569,0.005S216.286,64.897,216.936,63.995z"/>
</g>
<g>
	<circle fill="none" cx="150.875" cy="150" r="117.091"/>
</g>
<g>
	<circle fill="none" cx="150.875" cy="150" r="97.174"/>
	<path stroke="#000000" stroke-miterlimit="10" d="M135.241,242.207h-2.978v-1.075h7.249v1.075h-2.992v8.716h-1.278V242.207z"/>
	<path stroke="#000000" stroke-miterlimit="10" d="M144.643,250.467c0.566,0.349,1.395,0.64,2.266,0.64
		c1.293,0,2.048-0.683,2.048-1.671c0-0.915-0.523-1.438-1.845-1.946c-1.598-0.566-2.586-1.395-2.586-2.774
		c0-1.525,1.264-2.658,3.167-2.658c1.002,0,1.729,0.232,2.164,0.479l-0.349,1.032c-0.319-0.175-0.973-0.465-1.859-0.465
		c-1.336,0-1.845,0.799-1.845,1.467c0,0.915,0.596,1.365,1.946,1.889c1.656,0.639,2.499,1.438,2.499,2.876
		c0,1.511-1.119,2.818-3.429,2.818c-0.944,0-1.976-0.276-2.498-0.625L144.643,250.467z"/>
	<path stroke="#000000" stroke-miterlimit="10" d="M163.706,241.155c0.552-0.116,1.424-0.203,2.31-0.203
		c1.264,0,2.077,0.218,2.688,0.712c0.508,0.377,0.813,0.959,0.813,1.729c0,0.944-0.625,1.772-1.656,2.149v0.029
		c0.93,0.232,2.02,1.003,2.02,2.455c0,0.843-0.334,1.481-0.828,1.961c-0.683,0.625-1.787,0.915-3.385,0.915
		c-0.872,0-1.54-0.058-1.961-0.116V241.155z M164.97,245.165h1.147c1.337,0,2.121-0.697,2.121-1.642c0-1.147-0.872-1.598-2.15-1.598
		c-0.581,0-0.915,0.043-1.119,0.087V245.165z M164.97,249.856c0.247,0.044,0.61,0.059,1.061,0.059c1.308,0,2.513-0.479,2.513-1.903
		c0-1.336-1.148-1.889-2.528-1.889h-1.046V249.856z"/>
	<path stroke="#000000" stroke-miterlimit="10" d="M183.952,242.794c0,3.37-2.048,5.157-4.547,5.157
		c-2.585,0-4.401-2.005-4.401-4.969c0-3.108,1.932-5.142,4.547-5.142C182.224,237.841,183.952,239.889,183.952,242.794z
		 M176.355,242.954c0,2.092,1.133,3.966,3.123,3.966c2.004,0,3.138-1.846,3.138-4.068c0-1.946-1.017-3.979-3.123-3.979
		C177.401,238.872,176.355,240.804,176.355,242.954z"/>
	<path stroke="#000000" stroke-miterlimit="10" d="M190.873,243.188v-4.154l-3.094-5.637h1.438l1.38,2.702
		c0.378,0.741,0.668,1.336,0.973,2.02h0.029c0.276-0.64,0.61-1.278,0.988-2.02l1.409-2.702h1.438l-3.283,5.622v4.169H190.873z"/>
	<path stroke="#000000" stroke-miterlimit="10" d="M199.143,236.138c0.566,0.349,1.395,0.64,2.266,0.64
		c1.293,0,2.048-0.683,2.048-1.671c0-0.915-0.523-1.438-1.845-1.946c-1.598-0.566-2.586-1.395-2.586-2.774
		c0-1.525,1.264-2.658,3.167-2.658c1.002,0,1.729,0.232,2.164,0.479l-0.349,1.031c-0.319-0.175-0.973-0.465-1.859-0.465
		c-1.336,0-1.845,0.799-1.845,1.467c0,0.915,0.596,1.365,1.946,1.889c1.656,0.639,2.499,1.438,2.499,2.876
		c0,1.511-1.119,2.818-3.429,2.818c-0.944,0-1.976-0.276-2.498-0.625L199.143,236.138z"/>
</g>
<g>
	<g>
		<path fill="#FFFFFF" d="M267.203,141.375c-2.747-8.176-4.629-16.592-5.314-25.202c-0.466-5.858,0.098-12.009-3.505-17.009
			c-0.651-0.904-2.539-1.057-2.742,0.358c-1.062,7.41,1.704,14.439,3.988,21.385c2.773,8.432,5.86,16.753,9.165,24.99
			c0.71,1.77,3.613,0.997,2.893-0.798c-2.833-7.06-5.509-14.181-7.959-21.383c-2.448-7.197-6.302-15.666-5.194-23.396
			c-0.914,0.119-1.828,0.239-2.742,0.358c4.115,5.711,2.811,14.392,3.698,21.082c0.924,6.964,2.583,13.758,4.819,20.413
			C264.922,143.993,267.82,143.213,267.203,141.375L267.203,141.375z"/>
	</g>
</g>
<g>
	<g>
		<path fill="#FFFFFF" d="M257.448,112.891c0.791,5.417,2.075,10.712,3.854,15.889c0.208,0.605,1.174,0.345,0.964-0.266
			c-1.779-5.177-3.063-10.472-3.854-15.889C258.319,111.991,257.356,112.261,257.448,112.891L257.448,112.891z"/>
	</g>
</g>
<g>
	<g>
		<path fill="#FFFFFF" d="M252.093,109.38c7.965,13.873,14.7,28.35,20.146,43.393c0.87,2.402,4.736,1.365,3.857-1.063
			c-5.563-15.364-12.413-30.177-20.55-44.348C254.265,105.129,250.808,107.141,252.093,109.38L252.093,109.38z"/>
	</g>
</g>
<g>
	<g>
		<path fill="#FFFFFF" d="M274.868,166.81c-3.287-5.232-6.673-10.415-9.861-15.708c-3.305-5.488-3.778-10.872-3.969-17.154
			c-0.074-2.443-1.477-15.932,0.925-16.67c2.134-0.656,6.496,4.806,7.423,6.208c1.656,2.503,2.667,5.363,3.273,8.288
			c1.243,5.998,1.078,12.867,0.226,18.919c-0.263,1.869-0.583,3.703-1.45,5.422c-1.477,2.927-4.744,3.467-6.482-0.647
			c-1.055-2.497-0.957-5.701-1.121-8.396c-0.687-11.262,0.587-22.619-3.469-33.403c-0.898-2.387-4.766-1.353-3.857,1.063
			c3.503,9.314,2.889,19.05,3.179,28.815c0.16,5.387-0.307,14.408,4.548,18.185c5.68,4.418,10.521-1.904,11.973-7.059
			c2.065-7.336,1.827-16.586,0.311-23.962c-1.298-6.317-4.746-12.58-10.459-15.902c-1.893-1.1-4.759-2.567-6.955-1.683
			c-2.727,1.098-2.074,4.526-2.107,6.911c-0.113,8.227-0.921,17.453,1.124,25.497c2.125,8.362,8.773,16.094,13.296,23.295
			C272.78,171.003,276.242,168.998,274.868,166.81L274.868,166.81z"/>
	</g>
</g>
<g>
	<g>
		<path fill="#FFFFFF" d="M271.994,138.185c-0.279-10.51-2.913-20.454-7.821-29.748c-2.326-4.404-8.807-4.037-11.225,0
			c-5.639,9.414,0.284,23.691,3.898,32.942c2.973,7.61,14.877,4.779,12.536-3.456c-2.919-10.264-5.838-20.528-8.757-30.793
			c-0.996,2.447-1.991,4.894-2.987,7.341c-1.984,0.885-1.839-1.722-1.608,1.626c0.072,1.049,0.145,2.095,0.326,3.133
			c0.471,2.692,1.542,5.129,3.49,7.1c1.71,1.73,3.768,2.862,5.988,3.801c1.103,0.467,2.29,0.805,3.368,1.321
			c0.845,0.405,1.696,1.535,1.989,0.495c3.96-0.518,7.92-1.035,11.88-1.553c-1.112-2.519-1.161-5.053-0.917-7.735
			c-4.256,0.576-8.512,1.152-12.768,1.728c0.105,0.733-1.309,1.016-1.707,1.108c-5.183,1.191-6.642,9.497-1.553,11.88
			c7.672,3.592,14.044-1.42,15.343-9.277c1.34-8.107-10.039-11.621-12.536-3.456c-2.169,7.093-3.591,14.333-4.32,21.717
			c-0.365,3.697-0.515,7.419-0.454,11.133c0.024,1.491,0.117,2.978,0.17,4.468c0.048,0.756,0.067,1.513,0.058,2.271
			c-0.349,1.51-0.001,1.404,1.041-0.317c1.67-0.218,3.339-0.437,5.009-0.655c1.353,0.476,0.068,0.033-0.133-0.854
			c-0.241-1.062-0.661-2.092-0.825-3.189c-0.405-2.712-0.359-5.582-0.442-8.318c-0.198-6.514-0.098-13.026,0.218-19.535
			c-3.699,1.532-7.397,3.064-11.096,4.596c3.312,3.752,3.882,10.113,4.477,14.861c0.753,6.003,0.762,12.057,0.33,18.084
			c4.038-1.094,8.075-2.187,12.113-3.281c-3.684-8.616-3.231-18.398-3.006-27.558c-4.256,0.576-8.512,1.152-12.768,1.728
			c1.706,10.045,3.413,20.089,5.119,30.134c4.179-1.152,8.357-2.304,12.536-3.456c-2.252-9.807-4.507-19.621-6.176-29.547
			c-1.458-8.672-1.526-17.808-6.11-25.571c-2.236-3.786-9.25-4.678-11.225,0c-2.656,6.292-1.225,11.254,1.262,17.338
			c2.716,6.645,5.432,13.29,8.147,19.935c1.338,3.273,4.31,5.511,7.996,4.54c3.087-0.814,5.866-4.75,4.54-7.996
			c-2.007-4.911-4.015-9.823-6.022-14.734c-0.945-2.311-1.9-4.618-2.834-6.934c-0.428-1.06-2.333-4.476-1.864-5.587
			c-3.742,0-7.483,0-11.225,0c4.09,6.925,3.77,16.644,5.13,24.384c1.63,9.274,3.739,18.454,5.846,27.629
			c1.899,8.268,13.913,4.65,12.536-3.456c-1.706-10.045-3.413-20.089-5.119-30.134c-1.263-7.433-12.594-5.346-12.768,1.728
			c-0.29,11.792,0.083,23.133,4.781,34.119c2.771,6.48,11.704,2.416,12.113-3.281c0.963-13.43,0.806-31.466-8.614-42.137
			c-3.947-4.472-10.84-0.671-11.096,4.596c-0.453,9.323-0.74,18.881,0.261,28.179c0.711,6.601,4.411,17.537,13.058,16.368
			c9.107-1.232,7.623-12.878,7.58-19.347c-0.065-9.724,1.476-19.179,4.316-28.465c-4.179-1.152-8.357-2.304-12.536-3.456
			c-0.943,2.416,0.308,2.918,3.754,1.508c-0.518,3.96-1.035,7.92-1.553,11.88c8.085-1.857,11.9-9.322,10.787-17.1
			c-1.108-7.744-12.154-5.006-12.768,1.728c-0.465,5.103,0.647,9.662,2.692,14.297c2.355,5.337,10.484,3.408,11.88-1.553
			c1.42-5.045-0.526-9.688-4.494-12.964c-2.649-2.187-8.764-3.021-10.158-5.821c-0.828-1.662-0.174-4.497-0.732-6.393
			c-0.668-2.273-2.016-4.28-3.817-5.785c-4.017-3.356-8.896-3.225-13.449-1.195c-2.566,1.145-3.709,4.801-2.987,7.341
			c2.919,10.264,5.838,20.528,8.757,30.793c4.179-1.152,8.357-2.304,12.536-3.456c-1.56-3.993-2.933-8.044-3.997-12.199
			c-0.752-2.938-2.834-8.018-1.212-10.725c-3.742,0-7.483,0-11.225,0c3.829,7.251,5.829,14.992,6.046,23.186
			C259.216,146.534,272.217,146.567,271.994,138.185L271.994,138.185z"/>
	</g>
</g>
<g>
	
		<circle fill="none" stroke="#000000" stroke-width="4" stroke-linecap="round" stroke-miterlimit="10" stroke-dasharray="0,16.8977" cx="150.093" cy="150.145" r="129.084">

		<animateTransform attributeName="transform"
			attributeType="XML"
			type="rotate"
			from="0 150 150"
			to="360 150 150"
			dur="10s"
			repeatCount="indefinite" />
</circle>
</g>
</svg>
